<svg width="2341" height="1131" viewBox="0 0 2341 1131" fill="none" xmlns="http://www.w3.org/2000/svg">
<g filter="url(#filter0_i_918_641)">
<path d="M1923.95 44.0001C1933.26 44.0001 1942.04 48.3206 1947.72 55.6951L2326.99 548.152C2335.26 558.889 2335.3 573.838 2327.09 584.624L1947.72 1083.17C1942.05 1090.62 1933.22 1095 1923.85 1095L30 1095C13.4314 1095 1.93715e-05 1081.57 1.93715e-05 1065V74.0001C1.93715e-05 57.4316 13.4315 44.0001 30 44.0001L1923.95 44.0001Z" fill="black"/>
<g filter="url(#filter1_i_918_641)">
<path d="M1898.5 70.0001C1907.72 70.0001 1916.43 74.24 1922.11 81.4979L2288.09 548.609C2296.56 559.423 2296.61 574.611 2288.2 585.475L1922.11 1058.36C1916.43 1065.7 1907.67 1070 1898.39 1070H66.5C49.9315 1070 36.5 1056.57 36.5 1040V100C36.5 83.4316 49.9315 70.0001 66.5 70.0001L1898.5 70.0001Z" fill="#43703B"/>
</g>
<g filter="url(#filter2_i_918_641)">
<rect x="1825" y="112" width="273.133" height="210" rx="30" transform="rotate(90 1825 112)" fill="#D9D9D9"/>
<rect x="1825" y="757.867" width="273.133" height="210" rx="30" transform="rotate(90 1825 757.867)" fill="#D9D9D9"/>
<rect x="1825" y="434.42" width="274.16" height="210" rx="30" transform="rotate(90 1825 434.42)" fill="#FD3535"/>
<rect x="1570" y="112" width="273.133" height="210" rx="30" transform="rotate(90 1570 112)" fill="#FD3535"/>
<rect x="1570" y="757.867" width="273.133" height="210" rx="30" transform="rotate(90 1570 757.867)" fill="#FD3535"/>
<rect x="1570" y="434.42" width="274.16" height="210" rx="30" transform="rotate(90 1570 434.42)" fill="#D9D9D9"/>
<rect x="295" y="112" width="273.133" height="210" rx="30" transform="rotate(90 295 112)" fill="#D9D9D9"/>
<rect x="295" y="757.867" width="273.133" height="210" rx="30" transform="rotate(90 295 757.867)" fill="#D9D9D9"/>
<rect x="295" y="434.42" width="274.16" height="210" rx="30" transform="rotate(90 295 434.42)" fill="#FD3535"/>
<rect x="805" y="112" width="273.133" height="210" rx="30" transform="rotate(90 805 112)" fill="#D9D9D9"/>
<rect x="805" y="757.867" width="273.133" height="210" rx="30" transform="rotate(90 805 757.867)" fill="#D9D9D9"/>
<rect x="805" y="434.42" width="274.16" height="210" rx="30" transform="rotate(90 805 434.42)" fill="#FD3535"/>
<rect x="550" y="112" width="273.133" height="210" rx="30" transform="rotate(90 550 112)" fill="#FD3535"/>
<rect x="550" y="757.867" width="273.133" height="210" rx="30" transform="rotate(90 550 757.867)" fill="#FD3535"/>
<rect x="550" y="434.42" width="274.16" height="210" rx="30" transform="rotate(90 550 434.42)" fill="#D9D9D9"/>
<rect x="1315" y="112" width="273.133" height="210" rx="30" transform="rotate(90 1315 112)" fill="#D9D9D9"/>
<rect x="1315" y="757.867" width="273.133" height="210" rx="30" transform="rotate(90 1315 757.867)" fill="#D9D9D9"/>
<rect x="1315" y="434.42" width="274.16" height="210" rx="30" transform="rotate(90 1315 434.42)" fill="#FD3535"/>
<rect x="1060" y="112" width="273.133" height="210" rx="30" transform="rotate(90 1060 112)" fill="#FD3535"/>
<rect x="1060" y="757.867" width="273.133" height="210" rx="30" transform="rotate(90 1060 757.867)" fill="#FD3535"/>
<rect x="1060" y="434.42" width="274.16" height="210" rx="30" transform="rotate(90 1060 434.42)" fill="#D9D9D9"/>
</g>
<g filter="url(#filter3_i_918_641)">
<path d="M2246.29 549.781C2253.7 558.949 2253.7 572.051 2246.29 581.219L1907.44 1000.28C1892.62 1018.6 1863 1008.13 1863 984.559V146.441C1863 122.875 1892.62 112.397 1907.44 130.722L2246.29 549.781Z" fill="#36CA20"/>
</g>
<g filter="url(#filter4_d_918_641)">
<g filter="url(#filter5_d_918_641)">
<path d="M1934.75 506V494H1994.75V506H2006.75V530H2018.75V602H2006.75V626H1994.75V638H1922.75V626H1910.75V602H1898.75V542H1910.75V518H1922.75V506H1934.75ZM1970.75 530H1958.75V542H1946.75V578H1958.75V590H1970.75V578H1982.75V542H1970.75V530ZM2068 506V494H2128V506H2140V530H2152V602H2140V626H2128V638H2056V626H2044V602H2032V542H2044V518H2056V506H2068ZM2104 530H2092V542H2080V578H2092V590H2104V578H2116V542H2104V530Z" fill="black"/>
</g>
<g filter="url(#filter6_d_918_641)">
<path d="M180 235.097V229.097H204V235.097H210V295.097H204V301.097H192V295.097H186V253.097H180V247.097H174V235.097H180Z" fill="black"/>
</g>
<g filter="url(#filter7_d_918_641)">
<path d="M1178.13 215.341V209.341H1214.13V215.341H1220.13V245.341H1214.13V251.341H1208.13V257.341H1202.13V263.341H1208.13V257.341H1220.13V263.341H1226.13V275.341H1220.13V281.341H1172.13V263.341H1178.13V251.341H1184.13V245.341H1190.13V239.341H1196.13V227.341H1190.13V233.341H1178.13V227.341H1172.13V215.341H1178.13Z" fill="black"/>
</g>
<g filter="url(#filter8_d_918_641)">
<path d="M1698.92 549.345V543.345H1734.92V549.345H1740.92V573.345H1734.92V579.345H1740.92V585.345H1746.92V603.345H1740.92V609.345H1734.92V615.345H1704.92V609.345H1692.92V603.345H1686.92V597.345H1692.92V591.345H1698.92V585.345H1710.92V591.345H1716.92V579.345H1710.92V573.345H1716.92V561.345H1710.92V567.345H1698.92V561.345H1692.92V549.345H1698.92Z" fill="black"/>
</g>
<g filter="url(#filter9_d_918_641)">
<path d="M1193.44 538V532H1205.44V538H1211.44V550H1205.44V562H1217.44V538H1223.44V532H1235.44V538H1241.44V568H1235.44V598H1229.44V604H1217.44V598H1211.44V586H1199.44V580H1187.44V574H1181.44V556H1187.44V538H1193.44Z" fill="black"/>
</g>
<g filter="url(#filter10_d_918_641)">
<path d="M1449.44 223V217H1485.44V229H1479.44V235H1461.44V241H1479.44V247H1485.44V253H1491.44V277H1485.44V283H1479.44V289H1443.44V283H1437.44V271H1443.44V265H1449.44V259H1461.44V265H1467.44V259H1461.44V253H1443.44V223H1449.44Z" fill="black"/>
</g>
<g filter="url(#filter11_d_918_641)">
<path d="M1202.44 883V877H1220.44V883H1226.44V895H1220.44V901H1226.44V907H1232.44V913H1238.44V937H1232.44V943H1226.44V949H1196.44V943H1190.44V937H1184.44V907H1190.44V895H1196.44V883H1202.44ZM1214.44 919H1202.44V931H1214.44V919Z" fill="black"/>
</g>
<g filter="url(#filter12_d_918_641)">
<path d="M421.444 235V229H463.444V235H469.444V259H463.444V277H457.444V295H451.444V301H433.444V295H427.444V283H433.444V271H439.444V259H445.444V247H439.444V253H421.444V247H415.444V235H421.444Z" fill="black"/>
</g>
<g filter="url(#filter13_d_918_641)">
<path d="M1446.44 877V871H1482.44V877H1488.44V901H1482.44V907H1488.44V913H1494.44V937H1488.44V943H1440.44V937H1434.44V913H1440.44V907H1446.44V901H1440.44V877H1446.44ZM1470.44 889H1458.44V895H1470.44V889ZM1470.44 913H1458.44V919H1470.44V913Z" fill="black"/>
</g>
<g filter="url(#filter14_d_918_641)">
<path d="M678.163 235.622V229.622H708.163V235.622H714.163V241.622H720.163V277.622H714.163V289.622H708.163V295.622H702.163V301.622H684.163V295.622H678.163V283.622H684.163V277.622H678.163V271.622H672.163V265.622H666.163V241.622H672.163V235.622H678.163ZM702.163 247.622H690.163V259.622H702.163V247.622Z" fill="black"/>
</g>
<g filter="url(#filter15_d_918_641)">
<path d="M171.003 546.322V540.322H195.003V546.322H201.003V606.322H195.003V612.322H183.003V606.322H177.003V564.322H171.003V558.322H165.003V546.322H171.003ZM226.253 546.322V540.322H256.253V546.322H262.253V558.322H268.253V594.322H262.253V606.322H256.253V612.322H220.253V606.322H214.253V594.322H208.253V564.322H214.253V552.322H220.253V546.322H226.253ZM244.253 558.322H238.253V564.322H232.253V582.322H238.253V588.322H244.253V582.322H250.253V564.322H244.253V558.322Z" fill="black"/>
</g>
<g filter="url(#filter16_d_918_641)">
<path d="M673.372 869.018V863.018H697.372V869.018H703.372V929.018H697.372V935.018H685.372V929.018H679.372V887.018H673.372V881.018H667.372V869.018H673.372ZM716.622 869.018V863.018H740.622V869.018H746.622V929.018H740.622V935.018H728.622V929.018H722.622V887.018H716.622V881.018H710.622V869.018H716.622Z" fill="black"/>
</g>
<g filter="url(#filter17_d_918_641)">
<path d="M136.183 870.351V864.351H160.183V870.351H166.183V930.351H160.183V936.351H148.183V930.351H142.183V888.351H136.183V882.351H130.183V870.351H136.183ZM191.433 870.351V864.351H209.433V870.351H215.433V882.351H209.433V888.351H215.433V894.351H221.433V900.351H227.433V924.351H221.433V930.351H215.433V936.351H185.433V930.351H179.433V924.351H173.433V894.351H179.433V882.351H185.433V870.351H191.433ZM203.433 906.351H191.433V918.351H203.433V906.351Z" fill="black"/>
</g>
<g filter="url(#filter18_d_918_641)">
<path d="M1418.85 520.695V514.695H1442.85V520.695H1448.85V580.695H1442.85V586.695H1430.85V580.695H1424.85V538.695H1418.85V532.695H1412.85V520.695H1418.85ZM1468.1 520.695V514.695H1504.1V520.695H1510.1V544.695H1504.1V550.695H1510.1V556.695H1516.1V580.695H1510.1V586.695H1462.1V580.695H1456.1V556.695H1462.1V550.695H1468.1V544.695H1462.1V520.695H1468.1ZM1492.1 532.695H1480.1V538.695H1492.1V532.695ZM1492.1 556.695H1480.1V562.695H1492.1V556.695Z" fill="black"/>
</g>
<g filter="url(#filter19_d_918_641)">
<path d="M915.149 864.922V858.922H939.149V864.922H945.149V924.922H939.149V930.922H927.149V924.922H921.149V882.922H915.149V876.922H909.149V864.922H915.149ZM964.399 864.922V858.922H994.399V864.922H1000.4V870.922H1006.4V906.922H1000.4V918.922H994.399V924.922H988.399V930.922H970.399V924.922H964.399V912.922H970.399V906.922H964.399V900.922H958.399V894.922H952.399V870.922H958.399V864.922H964.399ZM988.399 876.922H976.399V888.922H988.399V876.922Z" fill="black"/>
</g>
<g filter="url(#filter20_d_918_641)">
<path d="M401.456 871.092V866.592H428.456V871.092H432.956V893.592H428.456V898.092H423.956V902.592H419.456V907.092H423.956V902.592H432.956V907.092H437.456V916.092H432.956V920.592H396.956V907.092H401.456V898.092H405.956V893.592H410.456V889.092H414.956V880.092H410.456V884.592H401.456V880.092H396.956V871.092H401.456ZM456.706 871.092V866.592H479.206V871.092H483.706V880.092H488.206V907.092H483.706V916.092H479.206V920.592H452.206V916.092H447.706V907.092H443.206V884.592H447.706V875.592H452.206V871.092H456.706ZM470.206 880.092H465.706V884.592H461.206V898.092H465.706V902.592H470.206V898.092H474.706V884.592H470.206V880.092Z" fill="black"/>
</g>
<g filter="url(#filter21_d_918_641)">
<path d="M914.437 548V542H950.437V548H956.437V578H950.437V584H944.437V590H938.437V596H944.437V590H956.437V596H962.437V608H956.437V614H908.437V596H914.437V584H920.437V578H926.437V572H932.437V560H926.437V566H914.437V560H908.437V548H914.437ZM975.687 548V542H999.687V548H1005.69V608H999.687V614H987.687V608H981.687V566H975.687V560H969.687V548H975.687Z" fill="black"/>
</g>
<g filter="url(#filter22_d_918_641)">
<path d="M397.909 551V545H421.909V551H427.909V611H421.909V617H409.909V611H403.909V569H397.909V563H391.909V551H397.909ZM441.159 551V545H483.159V551H489.159V575H483.159V593H477.159V611H471.159V617H453.159V611H447.159V599H453.159V587H459.159V575H465.159V563H459.159V569H441.159V563H435.159V551H441.159Z" fill="black"/>
</g>
<g filter="url(#filter23_d_918_641)">
<path d="M1671.41 236V230H1695.41V236H1701.41V296H1695.41V302H1683.41V296H1677.41V254H1671.41V248H1665.41V236H1671.41ZM1720.66 236V230H1756.66V242H1750.66V248H1732.66V254H1750.66V260H1756.66V266H1762.66V290H1756.66V296H1750.66V302H1714.66V296H1708.66V284H1714.66V278H1720.66V272H1732.66V278H1738.66V272H1732.66V266H1714.66V236H1720.66Z" fill="black"/>
</g>
<g filter="url(#filter24_d_918_641)">
<path d="M661.422 535.806V529.806H685.422V535.806H691.422V595.806H685.422V601.806H673.422V595.806H667.422V553.806H661.422V547.806H655.422V535.806H661.422ZM710.672 535.806V529.806H722.672V535.806H728.672V547.806H722.672V559.806H734.672V535.806H740.672V529.806H752.672V535.806H758.672V565.806H752.672V595.806H746.672V601.806H734.672V595.806H728.672V583.806H716.672V577.806H704.672V571.806H698.672V553.806H704.672V535.806H710.672Z" fill="black"/>
</g>
<g filter="url(#filter25_d_918_641)">
<path d="M1664.98 869.797V863.797H1688.98V869.797H1694.98V929.797H1688.98V935.797H1676.98V929.797H1670.98V887.797H1664.98V881.797H1658.98V869.797H1664.98ZM1714.23 869.797V863.797H1750.23V869.797H1756.23V893.797H1750.23V899.797H1756.23V905.797H1762.23V923.797H1756.23V929.797H1750.23V935.797H1720.23V929.797H1708.23V923.797H1702.23V917.797H1708.23V911.797H1714.23V905.797H1726.23V911.797H1732.23V899.797H1726.23V893.797H1732.23V881.797H1726.23V887.797H1714.23V881.797H1708.23V869.797H1714.23Z" fill="black"/>
</g>
<g filter="url(#filter26_d_918_641)">
<path d="M897.51 228.975V222.975H921.51V228.975H927.51V288.975H921.51V294.975H909.51V288.975H903.51V246.975H897.51V240.975H891.51V228.975H897.51ZM940.76 228.975V222.975L976.76 222.975V228.975H982.76V258.975H976.76V264.975H970.76V270.975H964.76V276.975H970.76V270.975H982.76V276.975H988.76V288.975H982.76V294.975H934.76V276.975H940.76V264.975H946.76V258.975H952.76V252.975H958.76V240.975H952.76V246.975H940.76V240.975H934.76V228.975H940.76Z" fill="black"/>
</g>
</g>
</g>
<defs>
<filter id="filter0_i_918_641" x="0" y="44.0001" width="2333.22" height="1055" filterUnits="userSpaceOnUse" color-interpolation-filters="sRGB">
<feFlood flood-opacity="0" result="BackgroundImageFix"/>
<feBlend mode="normal" in="SourceGraphic" in2="BackgroundImageFix" result="shape"/>
<feColorMatrix in="SourceAlpha" type="matrix" values="0 0 0 0 0 0 0 0 0 0 0 0 0 0 0 0 0 0 127 0" result="hardAlpha"/>
<feOffset dy="4"/>
<feGaussianBlur stdDeviation="2"/>
<feComposite in2="hardAlpha" operator="arithmetic" k2="-1" k3="1"/>
<feColorMatrix type="matrix" values="0 0 0 0 0 0 0 0 0 0 0 0 0 0 0 0 0 0 0.25 0"/>
<feBlend mode="normal" in2="shape" result="effect1_innerShadow_918_641"/>
</filter>
<filter id="filter1_i_918_641" x="36.5" y="70.0001" width="2257.98" height="1004" filterUnits="userSpaceOnUse" color-interpolation-filters="sRGB">
<feFlood flood-opacity="0" result="BackgroundImageFix"/>
<feBlend mode="normal" in="SourceGraphic" in2="BackgroundImageFix" result="shape"/>
<feColorMatrix in="SourceAlpha" type="matrix" values="0 0 0 0 0 0 0 0 0 0 0 0 0 0 0 0 0 0 127 0" result="hardAlpha"/>
<feOffset dy="4"/>
<feGaussianBlur stdDeviation="2"/>
<feComposite in2="hardAlpha" operator="arithmetic" k2="-1" k3="1"/>
<feColorMatrix type="matrix" values="0 0 0 0 0 0 0 0 0 0 0 0 0 0 0 0 0 0 0.25 0"/>
<feBlend mode="normal" in2="shape" result="effect1_innerShadow_918_641"/>
</filter>
<filter id="filter2_i_918_641" x="85" y="112" width="1740" height="923" filterUnits="userSpaceOnUse" color-interpolation-filters="sRGB">
<feFlood flood-opacity="0" result="BackgroundImageFix"/>
<feBlend mode="normal" in="SourceGraphic" in2="BackgroundImageFix" result="shape"/>
<feColorMatrix in="SourceAlpha" type="matrix" values="0 0 0 0 0 0 0 0 0 0 0 0 0 0 0 0 0 0 127 0" result="hardAlpha"/>
<feOffset dy="4"/>
<feGaussianBlur stdDeviation="2"/>
<feComposite in2="hardAlpha" operator="arithmetic" k2="-1" k3="1"/>
<feColorMatrix type="matrix" values="0 0 0 0 0 0 0 0 0 0 0 0 0 0 0 0 0 0 0.25 0"/>
<feBlend mode="normal" in2="shape" result="effect1_innerShadow_918_641"/>
</filter>
<filter id="filter3_i_918_641" x="1863" y="121.392" width="388.85" height="892.217" filterUnits="userSpaceOnUse" color-interpolation-filters="sRGB">
<feFlood flood-opacity="0" result="BackgroundImageFix"/>
<feBlend mode="normal" in="SourceGraphic" in2="BackgroundImageFix" result="shape"/>
<feColorMatrix in="SourceAlpha" type="matrix" values="0 0 0 0 0 0 0 0 0 0 0 0 0 0 0 0 0 0 127 0" result="hardAlpha"/>
<feOffset dy="4"/>
<feGaussianBlur stdDeviation="2"/>
<feComposite in2="hardAlpha" operator="arithmetic" k2="-1" k3="1"/>
<feColorMatrix type="matrix" values="0 0 0 0 0 0 0 0 0 0 0 0 0 0 0 0 0 0 0.25 0"/>
<feBlend mode="normal" in2="shape" result="effect1_innerShadow_918_641"/>
</filter>
<filter id="filter4_d_918_641" x="126.183" y="209.341" width="2029.81" height="747.659" filterUnits="userSpaceOnUse" color-interpolation-filters="sRGB">
<feFlood flood-opacity="0" result="BackgroundImageFix"/>
<feColorMatrix in="SourceAlpha" type="matrix" values="0 0 0 0 0 0 0 0 0 0 0 0 0 0 0 0 0 0 127 0" result="hardAlpha"/>
<feOffset dy="4"/>
<feGaussianBlur stdDeviation="2"/>
<feComposite in2="hardAlpha" operator="out"/>
<feColorMatrix type="matrix" values="0 0 0 0 0 0 0 0 0 0 0 0 0 0 0 0 0 0 0.25 0"/>
<feBlend mode="normal" in2="BackgroundImageFix" result="effect1_dropShadow_918_641"/>
<feBlend mode="normal" in="SourceGraphic" in2="effect1_dropShadow_918_641" result="shape"/>
</filter>
<filter id="filter5_d_918_641" x="1894.75" y="494" width="261.25" height="152" filterUnits="userSpaceOnUse" color-interpolation-filters="sRGB">
<feFlood flood-opacity="0" result="BackgroundImageFix"/>
<feColorMatrix in="SourceAlpha" type="matrix" values="0 0 0 0 0 0 0 0 0 0 0 0 0 0 0 0 0 0 127 0" result="hardAlpha"/>
<feOffset dy="4"/>
<feGaussianBlur stdDeviation="2"/>
<feComposite in2="hardAlpha" operator="out"/>
<feColorMatrix type="matrix" values="0 0 0 0 0 0 0 0 0 0 0 0 0 0 0 0 0 0 0.25 0"/>
<feBlend mode="normal" in2="BackgroundImageFix" result="effect1_dropShadow_918_641"/>
<feBlend mode="normal" in="SourceGraphic" in2="effect1_dropShadow_918_641" result="shape"/>
</filter>
<filter id="filter6_d_918_641" x="170" y="229.097" width="43.9999" height="80" filterUnits="userSpaceOnUse" color-interpolation-filters="sRGB">
<feFlood flood-opacity="0" result="BackgroundImageFix"/>
<feColorMatrix in="SourceAlpha" type="matrix" values="0 0 0 0 0 0 0 0 0 0 0 0 0 0 0 0 0 0 127 0" result="hardAlpha"/>
<feOffset dy="4"/>
<feGaussianBlur stdDeviation="2"/>
<feComposite in2="hardAlpha" operator="out"/>
<feColorMatrix type="matrix" values="0 0 0 0 0 0 0 0 0 0 0 0 0 0 0 0 0 0 0.25 0"/>
<feBlend mode="normal" in2="BackgroundImageFix" result="effect1_dropShadow_918_641"/>
<feBlend mode="normal" in="SourceGraphic" in2="effect1_dropShadow_918_641" result="shape"/>
</filter>
<filter id="filter7_d_918_641" x="1168.13" y="209.341" width="62" height="80" filterUnits="userSpaceOnUse" color-interpolation-filters="sRGB">
<feFlood flood-opacity="0" result="BackgroundImageFix"/>
<feColorMatrix in="SourceAlpha" type="matrix" values="0 0 0 0 0 0 0 0 0 0 0 0 0 0 0 0 0 0 127 0" result="hardAlpha"/>
<feOffset dy="4"/>
<feGaussianBlur stdDeviation="2"/>
<feComposite in2="hardAlpha" operator="out"/>
<feColorMatrix type="matrix" values="0 0 0 0 0 0 0 0 0 0 0 0 0 0 0 0 0 0 0.25 0"/>
<feBlend mode="normal" in2="BackgroundImageFix" result="effect1_dropShadow_918_641"/>
<feBlend mode="normal" in="SourceGraphic" in2="effect1_dropShadow_918_641" result="shape"/>
</filter>
<filter id="filter8_d_918_641" x="1682.92" y="543.345" width="68" height="80" filterUnits="userSpaceOnUse" color-interpolation-filters="sRGB">
<feFlood flood-opacity="0" result="BackgroundImageFix"/>
<feColorMatrix in="SourceAlpha" type="matrix" values="0 0 0 0 0 0 0 0 0 0 0 0 0 0 0 0 0 0 127 0" result="hardAlpha"/>
<feOffset dy="4"/>
<feGaussianBlur stdDeviation="2"/>
<feComposite in2="hardAlpha" operator="out"/>
<feColorMatrix type="matrix" values="0 0 0 0 0 0 0 0 0 0 0 0 0 0 0 0 0 0 0.25 0"/>
<feBlend mode="normal" in2="BackgroundImageFix" result="effect1_dropShadow_918_641"/>
<feBlend mode="normal" in="SourceGraphic" in2="effect1_dropShadow_918_641" result="shape"/>
</filter>
<filter id="filter9_d_918_641" x="1177.44" y="532" width="68" height="80" filterUnits="userSpaceOnUse" color-interpolation-filters="sRGB">
<feFlood flood-opacity="0" result="BackgroundImageFix"/>
<feColorMatrix in="SourceAlpha" type="matrix" values="0 0 0 0 0 0 0 0 0 0 0 0 0 0 0 0 0 0 127 0" result="hardAlpha"/>
<feOffset dy="4"/>
<feGaussianBlur stdDeviation="2"/>
<feComposite in2="hardAlpha" operator="out"/>
<feColorMatrix type="matrix" values="0 0 0 0 0 0 0 0 0 0 0 0 0 0 0 0 0 0 0.25 0"/>
<feBlend mode="normal" in2="BackgroundImageFix" result="effect1_dropShadow_918_641"/>
<feBlend mode="normal" in="SourceGraphic" in2="effect1_dropShadow_918_641" result="shape"/>
</filter>
<filter id="filter10_d_918_641" x="1433.44" y="217" width="62" height="80" filterUnits="userSpaceOnUse" color-interpolation-filters="sRGB">
<feFlood flood-opacity="0" result="BackgroundImageFix"/>
<feColorMatrix in="SourceAlpha" type="matrix" values="0 0 0 0 0 0 0 0 0 0 0 0 0 0 0 0 0 0 127 0" result="hardAlpha"/>
<feOffset dy="4"/>
<feGaussianBlur stdDeviation="2"/>
<feComposite in2="hardAlpha" operator="out"/>
<feColorMatrix type="matrix" values="0 0 0 0 0 0 0 0 0 0 0 0 0 0 0 0 0 0 0.25 0"/>
<feBlend mode="normal" in2="BackgroundImageFix" result="effect1_dropShadow_918_641"/>
<feBlend mode="normal" in="SourceGraphic" in2="effect1_dropShadow_918_641" result="shape"/>
</filter>
<filter id="filter11_d_918_641" x="1180.44" y="877" width="62" height="80" filterUnits="userSpaceOnUse" color-interpolation-filters="sRGB">
<feFlood flood-opacity="0" result="BackgroundImageFix"/>
<feColorMatrix in="SourceAlpha" type="matrix" values="0 0 0 0 0 0 0 0 0 0 0 0 0 0 0 0 0 0 127 0" result="hardAlpha"/>
<feOffset dy="4"/>
<feGaussianBlur stdDeviation="2"/>
<feComposite in2="hardAlpha" operator="out"/>
<feColorMatrix type="matrix" values="0 0 0 0 0 0 0 0 0 0 0 0 0 0 0 0 0 0 0.25 0"/>
<feBlend mode="normal" in2="BackgroundImageFix" result="effect1_dropShadow_918_641"/>
<feBlend mode="normal" in="SourceGraphic" in2="effect1_dropShadow_918_641" result="shape"/>
</filter>
<filter id="filter12_d_918_641" x="411.444" y="229" width="61.9999" height="80" filterUnits="userSpaceOnUse" color-interpolation-filters="sRGB">
<feFlood flood-opacity="0" result="BackgroundImageFix"/>
<feColorMatrix in="SourceAlpha" type="matrix" values="0 0 0 0 0 0 0 0 0 0 0 0 0 0 0 0 0 0 127 0" result="hardAlpha"/>
<feOffset dy="4"/>
<feGaussianBlur stdDeviation="2"/>
<feComposite in2="hardAlpha" operator="out"/>
<feColorMatrix type="matrix" values="0 0 0 0 0 0 0 0 0 0 0 0 0 0 0 0 0 0 0.25 0"/>
<feBlend mode="normal" in2="BackgroundImageFix" result="effect1_dropShadow_918_641"/>
<feBlend mode="normal" in="SourceGraphic" in2="effect1_dropShadow_918_641" result="shape"/>
</filter>
<filter id="filter13_d_918_641" x="1430.44" y="871" width="68" height="80" filterUnits="userSpaceOnUse" color-interpolation-filters="sRGB">
<feFlood flood-opacity="0" result="BackgroundImageFix"/>
<feColorMatrix in="SourceAlpha" type="matrix" values="0 0 0 0 0 0 0 0 0 0 0 0 0 0 0 0 0 0 127 0" result="hardAlpha"/>
<feOffset dy="4"/>
<feGaussianBlur stdDeviation="2"/>
<feComposite in2="hardAlpha" operator="out"/>
<feColorMatrix type="matrix" values="0 0 0 0 0 0 0 0 0 0 0 0 0 0 0 0 0 0 0.25 0"/>
<feBlend mode="normal" in2="BackgroundImageFix" result="effect1_dropShadow_918_641"/>
<feBlend mode="normal" in="SourceGraphic" in2="effect1_dropShadow_918_641" result="shape"/>
</filter>
<filter id="filter14_d_918_641" x="662.163" y="229.622" width="61.9999" height="80" filterUnits="userSpaceOnUse" color-interpolation-filters="sRGB">
<feFlood flood-opacity="0" result="BackgroundImageFix"/>
<feColorMatrix in="SourceAlpha" type="matrix" values="0 0 0 0 0 0 0 0 0 0 0 0 0 0 0 0 0 0 127 0" result="hardAlpha"/>
<feOffset dy="4"/>
<feGaussianBlur stdDeviation="2"/>
<feComposite in2="hardAlpha" operator="out"/>
<feColorMatrix type="matrix" values="0 0 0 0 0 0 0 0 0 0 0 0 0 0 0 0 0 0 0.25 0"/>
<feBlend mode="normal" in2="BackgroundImageFix" result="effect1_dropShadow_918_641"/>
<feBlend mode="normal" in="SourceGraphic" in2="effect1_dropShadow_918_641" result="shape"/>
</filter>
<filter id="filter15_d_918_641" x="161.003" y="540.322" width="111.25" height="80" filterUnits="userSpaceOnUse" color-interpolation-filters="sRGB">
<feFlood flood-opacity="0" result="BackgroundImageFix"/>
<feColorMatrix in="SourceAlpha" type="matrix" values="0 0 0 0 0 0 0 0 0 0 0 0 0 0 0 0 0 0 127 0" result="hardAlpha"/>
<feOffset dy="4"/>
<feGaussianBlur stdDeviation="2"/>
<feComposite in2="hardAlpha" operator="out"/>
<feColorMatrix type="matrix" values="0 0 0 0 0 0 0 0 0 0 0 0 0 0 0 0 0 0 0.25 0"/>
<feBlend mode="normal" in2="BackgroundImageFix" result="effect1_dropShadow_918_641"/>
<feBlend mode="normal" in="SourceGraphic" in2="effect1_dropShadow_918_641" result="shape"/>
</filter>
<filter id="filter16_d_918_641" x="663.372" y="863.018" width="87.25" height="80" filterUnits="userSpaceOnUse" color-interpolation-filters="sRGB">
<feFlood flood-opacity="0" result="BackgroundImageFix"/>
<feColorMatrix in="SourceAlpha" type="matrix" values="0 0 0 0 0 0 0 0 0 0 0 0 0 0 0 0 0 0 127 0" result="hardAlpha"/>
<feOffset dy="4"/>
<feGaussianBlur stdDeviation="2"/>
<feComposite in2="hardAlpha" operator="out"/>
<feColorMatrix type="matrix" values="0 0 0 0 0 0 0 0 0 0 0 0 0 0 0 0 0 0 0.25 0"/>
<feBlend mode="normal" in2="BackgroundImageFix" result="effect1_dropShadow_918_641"/>
<feBlend mode="normal" in="SourceGraphic" in2="effect1_dropShadow_918_641" result="shape"/>
</filter>
<filter id="filter17_d_918_641" x="126.183" y="864.351" width="105.25" height="80" filterUnits="userSpaceOnUse" color-interpolation-filters="sRGB">
<feFlood flood-opacity="0" result="BackgroundImageFix"/>
<feColorMatrix in="SourceAlpha" type="matrix" values="0 0 0 0 0 0 0 0 0 0 0 0 0 0 0 0 0 0 127 0" result="hardAlpha"/>
<feOffset dy="4"/>
<feGaussianBlur stdDeviation="2"/>
<feComposite in2="hardAlpha" operator="out"/>
<feColorMatrix type="matrix" values="0 0 0 0 0 0 0 0 0 0 0 0 0 0 0 0 0 0 0.25 0"/>
<feBlend mode="normal" in2="BackgroundImageFix" result="effect1_dropShadow_918_641"/>
<feBlend mode="normal" in="SourceGraphic" in2="effect1_dropShadow_918_641" result="shape"/>
</filter>
<filter id="filter18_d_918_641" x="1408.85" y="514.695" width="111.25" height="80" filterUnits="userSpaceOnUse" color-interpolation-filters="sRGB">
<feFlood flood-opacity="0" result="BackgroundImageFix"/>
<feColorMatrix in="SourceAlpha" type="matrix" values="0 0 0 0 0 0 0 0 0 0 0 0 0 0 0 0 0 0 127 0" result="hardAlpha"/>
<feOffset dy="4"/>
<feGaussianBlur stdDeviation="2"/>
<feComposite in2="hardAlpha" operator="out"/>
<feColorMatrix type="matrix" values="0 0 0 0 0 0 0 0 0 0 0 0 0 0 0 0 0 0 0.25 0"/>
<feBlend mode="normal" in2="BackgroundImageFix" result="effect1_dropShadow_918_641"/>
<feBlend mode="normal" in="SourceGraphic" in2="effect1_dropShadow_918_641" result="shape"/>
</filter>
<filter id="filter19_d_918_641" x="905.149" y="858.922" width="105.25" height="80" filterUnits="userSpaceOnUse" color-interpolation-filters="sRGB">
<feFlood flood-opacity="0" result="BackgroundImageFix"/>
<feColorMatrix in="SourceAlpha" type="matrix" values="0 0 0 0 0 0 0 0 0 0 0 0 0 0 0 0 0 0 127 0" result="hardAlpha"/>
<feOffset dy="4"/>
<feGaussianBlur stdDeviation="2"/>
<feComposite in2="hardAlpha" operator="out"/>
<feColorMatrix type="matrix" values="0 0 0 0 0 0 0 0 0 0 0 0 0 0 0 0 0 0 0.25 0"/>
<feBlend mode="normal" in2="BackgroundImageFix" result="effect1_dropShadow_918_641"/>
<feBlend mode="normal" in="SourceGraphic" in2="effect1_dropShadow_918_641" result="shape"/>
</filter>
<filter id="filter20_d_918_641" x="392.956" y="866.592" width="99.25" height="62" filterUnits="userSpaceOnUse" color-interpolation-filters="sRGB">
<feFlood flood-opacity="0" result="BackgroundImageFix"/>
<feColorMatrix in="SourceAlpha" type="matrix" values="0 0 0 0 0 0 0 0 0 0 0 0 0 0 0 0 0 0 127 0" result="hardAlpha"/>
<feOffset dy="4"/>
<feGaussianBlur stdDeviation="2"/>
<feComposite in2="hardAlpha" operator="out"/>
<feColorMatrix type="matrix" values="0 0 0 0 0 0 0 0 0 0 0 0 0 0 0 0 0 0 0.25 0"/>
<feBlend mode="normal" in2="BackgroundImageFix" result="effect1_dropShadow_918_641"/>
<feBlend mode="normal" in="SourceGraphic" in2="effect1_dropShadow_918_641" result="shape"/>
</filter>
<filter id="filter21_d_918_641" x="904.437" y="542" width="105.25" height="80" filterUnits="userSpaceOnUse" color-interpolation-filters="sRGB">
<feFlood flood-opacity="0" result="BackgroundImageFix"/>
<feColorMatrix in="SourceAlpha" type="matrix" values="0 0 0 0 0 0 0 0 0 0 0 0 0 0 0 0 0 0 127 0" result="hardAlpha"/>
<feOffset dy="4"/>
<feGaussianBlur stdDeviation="2"/>
<feComposite in2="hardAlpha" operator="out"/>
<feColorMatrix type="matrix" values="0 0 0 0 0 0 0 0 0 0 0 0 0 0 0 0 0 0 0.25 0"/>
<feBlend mode="normal" in2="BackgroundImageFix" result="effect1_dropShadow_918_641"/>
<feBlend mode="normal" in="SourceGraphic" in2="effect1_dropShadow_918_641" result="shape"/>
</filter>
<filter id="filter22_d_918_641" x="387.909" y="545" width="105.25" height="80" filterUnits="userSpaceOnUse" color-interpolation-filters="sRGB">
<feFlood flood-opacity="0" result="BackgroundImageFix"/>
<feColorMatrix in="SourceAlpha" type="matrix" values="0 0 0 0 0 0 0 0 0 0 0 0 0 0 0 0 0 0 127 0" result="hardAlpha"/>
<feOffset dy="4"/>
<feGaussianBlur stdDeviation="2"/>
<feComposite in2="hardAlpha" operator="out"/>
<feColorMatrix type="matrix" values="0 0 0 0 0 0 0 0 0 0 0 0 0 0 0 0 0 0 0.25 0"/>
<feBlend mode="normal" in2="BackgroundImageFix" result="effect1_dropShadow_918_641"/>
<feBlend mode="normal" in="SourceGraphic" in2="effect1_dropShadow_918_641" result="shape"/>
</filter>
<filter id="filter23_d_918_641" x="1661.41" y="230" width="105.25" height="80" filterUnits="userSpaceOnUse" color-interpolation-filters="sRGB">
<feFlood flood-opacity="0" result="BackgroundImageFix"/>
<feColorMatrix in="SourceAlpha" type="matrix" values="0 0 0 0 0 0 0 0 0 0 0 0 0 0 0 0 0 0 127 0" result="hardAlpha"/>
<feOffset dy="4"/>
<feGaussianBlur stdDeviation="2"/>
<feComposite in2="hardAlpha" operator="out"/>
<feColorMatrix type="matrix" values="0 0 0 0 0 0 0 0 0 0 0 0 0 0 0 0 0 0 0.25 0"/>
<feBlend mode="normal" in2="BackgroundImageFix" result="effect1_dropShadow_918_641"/>
<feBlend mode="normal" in="SourceGraphic" in2="effect1_dropShadow_918_641" result="shape"/>
</filter>
<filter id="filter24_d_918_641" x="651.422" y="529.806" width="111.25" height="80" filterUnits="userSpaceOnUse" color-interpolation-filters="sRGB">
<feFlood flood-opacity="0" result="BackgroundImageFix"/>
<feColorMatrix in="SourceAlpha" type="matrix" values="0 0 0 0 0 0 0 0 0 0 0 0 0 0 0 0 0 0 127 0" result="hardAlpha"/>
<feOffset dy="4"/>
<feGaussianBlur stdDeviation="2"/>
<feComposite in2="hardAlpha" operator="out"/>
<feColorMatrix type="matrix" values="0 0 0 0 0 0 0 0 0 0 0 0 0 0 0 0 0 0 0.25 0"/>
<feBlend mode="normal" in2="BackgroundImageFix" result="effect1_dropShadow_918_641"/>
<feBlend mode="normal" in="SourceGraphic" in2="effect1_dropShadow_918_641" result="shape"/>
</filter>
<filter id="filter25_d_918_641" x="1654.98" y="863.797" width="111.25" height="80" filterUnits="userSpaceOnUse" color-interpolation-filters="sRGB">
<feFlood flood-opacity="0" result="BackgroundImageFix"/>
<feColorMatrix in="SourceAlpha" type="matrix" values="0 0 0 0 0 0 0 0 0 0 0 0 0 0 0 0 0 0 127 0" result="hardAlpha"/>
<feOffset dy="4"/>
<feGaussianBlur stdDeviation="2"/>
<feComposite in2="hardAlpha" operator="out"/>
<feColorMatrix type="matrix" values="0 0 0 0 0 0 0 0 0 0 0 0 0 0 0 0 0 0 0.25 0"/>
<feBlend mode="normal" in2="BackgroundImageFix" result="effect1_dropShadow_918_641"/>
<feBlend mode="normal" in="SourceGraphic" in2="effect1_dropShadow_918_641" result="shape"/>
</filter>
<filter id="filter26_d_918_641" x="887.51" y="222.975" width="105.25" height="80" filterUnits="userSpaceOnUse" color-interpolation-filters="sRGB">
<feFlood flood-opacity="0" result="BackgroundImageFix"/>
<feColorMatrix in="SourceAlpha" type="matrix" values="0 0 0 0 0 0 0 0 0 0 0 0 0 0 0 0 0 0 127 0" result="hardAlpha"/>
<feOffset dy="4"/>
<feGaussianBlur stdDeviation="2"/>
<feComposite in2="hardAlpha" operator="out"/>
<feColorMatrix type="matrix" values="0 0 0 0 0 0 0 0 0 0 0 0 0 0 0 0 0 0 0.25 0"/>
<feBlend mode="normal" in2="BackgroundImageFix" result="effect1_dropShadow_918_641"/>
<feBlend mode="normal" in="SourceGraphic" in2="effect1_dropShadow_918_641" result="shape"/>
</filter>
</defs>
</svg>
