<svg width="272" height="272" viewBox="0 0 272 272" fill="none" xmlns="http://www.w3.org/2000/svg">
<g filter="url(#filter0_d_928_699)">
<circle cx="136" cy="132" r="117" fill="#435B8B" stroke="#5D7BC8" stroke-width="30" stroke-dasharray="70 70"/>
<circle cx="135.5" cy="132.5" r="97" fill="#769EED" stroke="white" stroke-width="9" stroke-linecap="square" stroke-dasharray="50 50"/>
<path d="M107.875 97V91H119.875V97H131.875V103H137.875V109H143.875V121H125.875V115H119.875V127H131.875V133H137.875V139H143.875V157H137.875V163H131.875V169H119.875V175H107.875V169H95.875V163H89.875V157H83.875V145H101.875V151H107.875V139H95.875V133H89.875V127H83.875V109H89.875V103H95.875V97H107.875ZM107.875 115H101.875V121H107.875V115ZM125.875 145H119.875V151H125.875V145ZM157.125 103V97H181.125V103H187.125V163H181.125V169H169.125V163H163.125V121H157.125V115H151.125V103H157.125Z" fill="black"/>
</g>
<defs>
<filter id="filter0_d_928_699" x="0" y="0" width="272" height="272" filterUnits="userSpaceOnUse" color-interpolation-filters="sRGB">
<feFlood flood-opacity="0" result="BackgroundImageFix"/>
<feColorMatrix in="SourceAlpha" type="matrix" values="0 0 0 0 0 0 0 0 0 0 0 0 0 0 0 0 0 0 127 0" result="hardAlpha"/>
<feOffset dy="4"/>
<feGaussianBlur stdDeviation="2"/>
<feComposite in2="hardAlpha" operator="out"/>
<feColorMatrix type="matrix" values="0 0 0 0 0 0 0 0 0 0 0 0 0 0 0 0 0 0 0.25 0"/>
<feBlend mode="normal" in2="BackgroundImageFix" result="effect1_dropShadow_928_699"/>
<feBlend mode="normal" in="SourceGraphic" in2="effect1_dropShadow_928_699" result="shape"/>
</filter>
</defs>
</svg>
