<svg width="1131" height="2341" viewBox="0 0 1131 2341" fill="none" xmlns="http://www.w3.org/2000/svg">
<g filter="url(#filter0_i_918_641)">
<path d="M44 417.045C44 407.737 48.3205 398.956 55.695 393.277L548.151 14.0134C558.889 5.74375 573.838 5.70043 584.623 13.9078L1083.17 393.279C1090.62 398.953 1095 407.784 1095 417.153V2311C1095 2327.57 1081.57 2341 1065 2341H74C57.4315 2341 44 2327.57 44 2311V417.045Z" fill="black"/>
<g filter="url(#filter1_i_918_641)">
<path d="M70 442.502C70 433.282 74.2399 424.574 81.4978 418.887L548.608 52.9098C559.423 44.4366 574.611 44.3924 585.475 52.8025L1058.36 418.888C1065.7 424.57 1070 433.329 1070 442.61V2274.5C1070 2291.07 1056.57 2304.5 1040 2304.5H100C83.4314 2304.5 70 2291.07 70 2274.5V442.502Z" fill="#43703B"/>
</g>
<g filter="url(#filter2_i_918_641)">
<rect x="112" y="516" width="273.133" height="210" rx="30" fill="#D9D9D9"/>
<rect x="757.867" y="516" width="273.133" height="210" rx="30" fill="#D9D9D9"/>
<rect x="434.42" y="516" width="274.16" height="210" rx="30" fill="#FD3535"/>
<rect x="112" y="771" width="273.133" height="210" rx="30" fill="#FD3535"/>
<rect x="757.867" y="771" width="273.133" height="210" rx="30" fill="#FD3535"/>
<rect x="434.42" y="771" width="274.16" height="210" rx="30" fill="#D9D9D9"/>
<rect x="112" y="2046" width="273.133" height="210" rx="30" fill="#D9D9D9"/>
<rect x="757.867" y="2046" width="273.133" height="210" rx="30" fill="#D9D9D9"/>
<rect x="434.42" y="2046" width="274.16" height="210" rx="30" fill="#FD3535"/>
<rect x="112" y="1536" width="273.133" height="210" rx="30" fill="#D9D9D9"/>
<rect x="757.867" y="1536" width="273.133" height="210" rx="30" fill="#D9D9D9"/>
<rect x="434.42" y="1536" width="274.16" height="210" rx="30" fill="#FD3535"/>
<rect x="112" y="1791" width="273.133" height="210" rx="30" fill="#FD3535"/>
<rect x="757.867" y="1791" width="273.133" height="210" rx="30" fill="#FD3535"/>
<rect x="434.42" y="1791" width="274.16" height="210" rx="30" fill="#D9D9D9"/>
<rect x="112" y="1026" width="273.133" height="210" rx="30" fill="#D9D9D9"/>
<rect x="757.867" y="1026" width="273.133" height="210" rx="30" fill="#D9D9D9"/>
<rect x="434.42" y="1026" width="274.16" height="210" rx="30" fill="#FD3535"/>
<rect x="112" y="1281" width="273.133" height="210" rx="30" fill="#FD3535"/>
<rect x="757.867" y="1281" width="273.133" height="210" rx="30" fill="#FD3535"/>
<rect x="434.42" y="1281" width="274.16" height="210" rx="30" fill="#D9D9D9"/>
</g>
<g filter="url(#filter3_i_918_641)">
<path d="M549.781 94.7105C558.949 87.2971 572.051 87.2971 581.219 94.7105L1000.28 433.56C1018.6 448.378 1008.13 478 984.559 478H146.441C122.874 478 112.397 448.378 130.722 433.56L549.781 94.7105Z" fill="#36CA20"/>
</g>
<g filter="url(#filter4_d_918_641)">
<g filter="url(#filter5_d_918_641)">
<path d="M473.462 276.776L473.342 264.776L533.339 264.177L533.459 276.176L545.458 276.056L545.698 300.055L557.698 299.935L558.417 371.931L546.418 372.051L546.658 396.05L534.659 396.17L534.779 408.169L462.782 408.889L462.662 396.89L450.663 397.01L450.423 373.011L438.423 373.131L437.824 313.134L449.823 313.014L449.583 289.015L461.582 288.895L461.462 276.896L473.462 276.776ZM509.7 300.415L497.701 300.535L497.821 312.534L485.821 312.654L486.181 348.652L498.18 348.532L498.3 360.532L510.3 360.412L510.18 348.412L522.179 348.292L521.819 312.294L509.82 312.414L509.7 300.415ZM606.705 275.444L606.585 263.444L666.582 262.844L666.702 274.844L678.702 274.724L678.942 298.723L690.941 298.603L691.661 370.599L679.661 370.719L679.901 394.718L667.902 394.838L668.022 406.837L596.025 407.557L595.906 395.558L583.906 395.678L583.666 371.679L571.667 371.799L571.067 311.802L583.066 311.682L582.826 287.683L594.826 287.563L594.706 275.564L606.705 275.444ZM642.943 299.082L630.944 299.202L631.064 311.202L619.064 311.322L619.424 347.32L631.424 347.2L631.544 359.199L643.543 359.079L643.423 347.08L655.423 346.96L655.063 310.962L643.063 311.082L642.943 299.082Z" fill="black"/>
</g>
<g filter="url(#filter6_d_918_641)">
<path d="M256.217 2117.48L257 2111.53L280.795 2114.66L280.011 2120.61L285.96 2121.4L278.127 2180.88L272.179 2180.1L271.395 2186.05L259.498 2184.48L260.281 2178.53L254.333 2177.75L259.816 2136.11L253.867 2135.32L254.65 2129.38L248.702 2128.59L250.268 2116.7L256.217 2117.48Z" fill="black"/>
</g>
<g filter="url(#filter7_d_918_641)">
<path d="M225.118 1110.61L225.442 1104.61L261.389 1106.56L261.065 1112.55L267.056 1112.88L265.435 1142.83L259.443 1142.51L259.119 1148.5L253.128 1148.17L252.803 1154.17L246.812 1153.84L246.488 1159.83L252.479 1160.16L252.803 1154.17L264.786 1154.81L264.461 1160.81L270.453 1161.13L269.804 1173.11L263.813 1172.79L263.488 1178.78L215.559 1176.18L216.532 1158.21L222.523 1158.53L223.172 1146.55L229.163 1146.88L229.487 1140.89L235.478 1141.21L235.803 1135.22L241.794 1135.54L242.443 1123.56L236.452 1123.24L236.127 1129.23L224.145 1128.58L224.469 1122.59L218.478 1122.26L219.127 1110.28L225.118 1110.61Z" fill="black"/>
</g>
<g filter="url(#filter8_d_918_641)">
<path d="M561.033 593.607L561.143 587.608L597.137 588.265L597.027 594.264L603.026 594.374L602.587 618.37L596.588 618.26L596.479 624.259L602.478 624.369L602.368 630.368L608.367 630.478L608.038 648.475L602.039 648.365L601.93 654.364L595.931 654.254L595.821 660.253L565.826 659.705L565.936 653.706L553.938 653.487L554.047 647.488L548.048 647.378L548.158 641.379L554.157 641.489L554.266 635.49L560.265 635.6L560.375 629.601L572.373 629.82L572.263 635.819L578.262 635.929L578.482 623.931L572.483 623.821L572.592 617.822L578.591 617.932L578.811 605.934L572.812 605.824L572.702 611.823L560.704 611.604L560.814 605.605L554.815 605.495L555.034 593.497L561.033 593.607Z" fill="black"/>
</g>
<g filter="url(#filter9_d_918_641)">
<path d="M560.241 1108.03L560.067 1102.03L572.062 1101.69L572.236 1107.68L578.234 1107.51L578.582 1119.5L572.584 1119.68L572.932 1131.67L584.927 1131.32L584.231 1107.34L590.229 1107.16L590.055 1101.16L602.05 1100.82L602.224 1106.81L608.221 1106.64L609.091 1136.63L603.093 1136.8L603.963 1166.79L597.966 1166.96L598.14 1172.96L586.145 1173.31L585.971 1167.31L579.973 1167.48L579.625 1155.49L567.63 1155.84L567.457 1149.84L555.462 1150.19L555.288 1144.19L549.29 1144.36L548.768 1126.37L554.766 1126.2L554.244 1108.2L560.241 1108.03Z" fill="black"/>
</g>
<g filter="url(#filter10_d_918_641)">
<path d="M221.457 863.414L222.432 857.494L257.954 863.341L256.005 875.182L250.085 874.207L249.11 880.127L231.349 877.204L230.375 883.124L248.136 886.048L247.161 891.968L253.081 892.943L252.107 898.863L258.027 899.837L254.129 923.519L248.209 922.544L247.234 928.465L241.314 927.49L240.34 933.41L204.818 927.563L205.792 921.643L199.872 920.669L201.821 908.828L207.741 909.802L208.716 903.882L214.636 904.857L215.61 898.936L227.451 900.885L226.477 906.806L232.397 907.78L233.371 901.86L227.451 900.885L228.426 894.965L210.665 892.041L215.537 862.44L221.457 863.414Z" fill="black"/>
</g>
<g filter="url(#filter11_d_918_641)">
<path d="M893.089 1101.21L893.554 1095.23L911.5 1096.62L911.034 1102.61L917.016 1103.07L916.085 1115.04L910.103 1114.57L909.638 1120.55L915.62 1121.02L915.154 1127L921.136 1127.46L920.67 1133.45L926.652 1133.91L924.79 1157.84L918.808 1157.37L918.342 1163.36L912.361 1162.89L911.895 1168.87L881.985 1166.54L882.451 1160.56L876.469 1160.1L876.935 1154.12L870.953 1153.65L873.281 1123.74L879.263 1124.21L880.194 1112.24L886.176 1112.71L887.107 1100.74L893.089 1101.21ZM902.259 1138.03L890.295 1137.1L889.364 1149.06L901.328 1150L902.259 1138.03Z" fill="black"/>
</g>
<g filter="url(#filter12_d_918_641)">
<path d="M249.216 1851.91L249.65 1845.92L291.54 1848.96L291.106 1854.95L297.09 1855.38L295.354 1879.32L289.369 1878.88L288.067 1896.84L282.083 1896.4L280.781 1914.36L274.796 1913.92L274.362 1919.91L256.409 1918.6L256.843 1912.62L250.859 1912.19L251.727 1900.22L257.712 1900.65L258.58 1888.68L264.564 1889.12L265.432 1877.15L271.417 1877.58L272.285 1865.61L266.301 1865.18L265.866 1871.16L247.914 1869.86L248.348 1863.88L242.363 1863.44L243.232 1851.47L249.216 1851.91Z" fill="black"/>
</g>
<g filter="url(#filter13_d_918_641)">
<path d="M882.226 833.325L883.684 827.505L918.606 836.25L917.148 842.071L922.968 843.528L917.138 866.809L911.317 865.352L909.86 871.172L915.68 872.63L914.222 878.45L920.043 879.907L914.212 903.189L908.392 901.731L906.934 907.551L860.372 895.89L861.83 890.07L856.01 888.612L861.84 865.331L867.66 866.789L869.118 860.969L874.938 862.426L876.396 856.606L870.576 855.148L876.406 831.867L882.226 833.325ZM902.592 850.796L890.952 847.881L889.494 853.701L901.135 856.616L902.592 850.796ZM896.762 874.077L885.121 871.162L883.664 876.982L895.304 879.897L896.762 874.077Z" fill="black"/>
</g>
<g filter="url(#filter14_d_918_641)">
<path d="M252.035 1616.61L252.486 1610.63L282.401 1612.88L281.95 1618.87L287.933 1619.32L287.483 1625.3L293.466 1625.75L290.762 1661.65L284.779 1661.2L283.877 1673.17L277.894 1672.71L277.443 1678.7L271.46 1678.25L271.01 1684.23L253.061 1682.88L253.511 1676.89L247.528 1676.44L248.43 1664.48L254.413 1664.93L254.863 1658.95L248.88 1658.49L249.331 1652.51L243.348 1652.06L243.799 1646.08L237.816 1645.63L239.618 1621.7L245.601 1622.15L246.052 1616.16L252.035 1616.61ZM275.066 1630.38L263.1 1629.48L262.198 1641.45L274.165 1642.35L275.066 1630.38Z" fill="black"/>
</g>
<g filter="url(#filter15_d_918_641)">
<path d="M527.712 2098.16L527.159 2092.19L551.056 2089.97L551.61 2095.95L557.584 2095.39L563.118 2155.14L557.144 2155.69L557.697 2161.67L545.748 2162.77L545.195 2156.8L539.22 2157.35L535.347 2115.53L529.372 2116.08L528.819 2110.11L522.844 2110.66L521.738 2098.71L527.712 2098.16ZM582.727 2093.06L582.173 2087.09L612.045 2084.32L612.599 2090.3L618.573 2089.74L619.68 2101.69L625.654 2101.14L628.975 2136.99L623 2137.54L624.107 2149.49L618.133 2150.04L618.686 2156.02L582.84 2159.34L582.286 2153.36L576.312 2153.92L575.205 2141.97L569.23 2142.52L566.463 2112.65L572.438 2112.09L571.331 2100.15L577.306 2099.59L576.752 2093.62L582.727 2093.06ZM601.757 2103.35L595.782 2103.91L596.336 2109.88L590.361 2110.43L592.021 2128.36L597.996 2127.8L598.549 2133.78L604.524 2133.23L603.97 2127.25L609.945 2126.7L608.284 2108.77L602.31 2109.33L601.757 2103.35Z" fill="black"/>
</g>
<g filter="url(#filter16_d_918_641)">
<path d="M866.612 1601.66L866.924 1595.67L890.892 1596.92L890.579 1602.91L896.571 1603.23L893.445 1663.14L887.453 1662.83L887.141 1668.82L875.157 1668.2L875.47 1662.21L869.478 1661.89L871.666 1619.95L865.674 1619.64L865.986 1613.65L859.995 1613.33L860.62 1601.35L866.612 1601.66ZM909.803 1603.92L910.115 1597.92L934.083 1599.17L933.77 1605.17L939.762 1605.48L936.637 1665.4L930.645 1665.08L930.332 1671.08L918.349 1670.45L918.661 1664.46L912.669 1664.15L914.857 1622.2L908.865 1621.89L909.178 1615.9L903.186 1615.59L903.811 1603.6L909.803 1603.92Z" fill="black"/>
</g>
<g filter="url(#filter17_d_918_641)">
<path d="M859.405 2128.92L859.738 2122.93L883.701 2124.26L883.368 2130.25L889.359 2130.59L886.031 2190.49L880.04 2190.16L879.707 2196.15L867.726 2195.49L868.059 2189.5L862.068 2189.16L864.397 2147.23L858.407 2146.89L858.739 2140.9L852.749 2140.57L853.414 2128.59L859.405 2128.92ZM914.57 2131.99L914.903 2126L932.875 2126.99L932.542 2132.98L938.533 2133.32L937.867 2145.3L931.877 2144.97L931.544 2150.96L937.535 2151.29L937.202 2157.28L943.193 2157.61L942.86 2163.6L948.85 2163.94L947.519 2187.9L941.529 2187.57L941.196 2193.56L935.205 2193.23L934.872 2199.22L904.918 2197.55L905.251 2191.56L899.26 2191.23L899.593 2185.24L893.602 2184.9L895.266 2154.95L901.257 2155.28L901.923 2143.3L907.913 2143.64L908.579 2131.65L914.57 2131.99ZM924.555 2168.6L912.573 2167.93L911.908 2179.91L923.889 2180.58L924.555 2168.6Z" fill="black"/>
</g>
<g filter="url(#filter18_d_918_641)">
<path d="M505.218 844.832L505.434 838.836L529.419 839.702L529.202 845.698L535.198 845.915L533.033 905.876L527.037 905.659L526.821 911.655L514.828 911.222L515.045 905.226L509.049 905.01L510.564 863.037L504.568 862.821L504.785 856.825L498.789 856.608L499.222 844.616L505.218 844.832ZM554.436 846.61L554.652 840.613L590.629 841.912L590.412 847.909L596.408 848.125L595.542 872.109L589.546 871.893L589.33 877.889L595.326 878.106L595.109 884.102L601.105 884.318L600.239 908.303L594.243 908.086L594.027 914.082L546.058 912.35L546.275 906.354L540.278 906.137L541.144 882.153L547.141 882.37L547.357 876.374L553.353 876.59L553.57 870.594L547.574 870.377L548.44 846.393L554.436 846.61ZM577.987 859.468L565.995 859.035L565.778 865.031L577.771 865.464L577.987 859.468ZM577.121 883.452L565.129 883.019L564.912 889.015L576.905 889.448L577.121 883.452Z" fill="black"/>
</g>
<g filter="url(#filter19_d_918_641)">
<path d="M854.114 1349.72L854.508 1343.73L878.456 1345.31L878.063 1351.3L884.05 1351.69L880.115 1411.56L874.128 1411.17L873.735 1417.15L861.761 1416.37L862.154 1410.38L856.167 1409.99L858.921 1368.08L852.934 1367.68L853.327 1361.7L847.34 1361.3L848.127 1349.33L854.114 1349.72ZM903.258 1352.95L903.652 1346.96L933.587 1348.93L933.194 1354.92L939.181 1355.31L938.787 1361.3L944.774 1361.69L942.414 1397.61L936.427 1397.22L935.64 1409.2L929.653 1408.8L929.259 1414.79L923.272 1414.4L922.879 1420.38L904.918 1419.2L905.311 1413.22L899.324 1412.82L900.111 1400.85L906.098 1401.24L906.491 1395.25L900.504 1394.86L900.898 1388.87L894.911 1388.48L895.304 1382.49L889.317 1382.1L890.891 1358.15L896.878 1358.54L897.271 1352.56L903.258 1352.95ZM926.42 1366.5L914.446 1365.71L913.659 1377.69L925.633 1378.47L926.42 1366.5Z" fill="black"/>
</g>
<g filter="url(#filter20_d_918_641)">
<path d="M850.748 1918.23L847.131 1915.55L863.193 1893.85L866.81 1896.53L869.487 1892.91L887.573 1906.29L884.896 1909.91L888.513 1912.59L885.836 1916.21L889.453 1918.88L886.776 1922.5L890.393 1925.18L893.07 1921.56L889.453 1918.88L894.807 1911.65L898.424 1914.33L901.101 1910.71L908.335 1916.06L905.658 1919.68L909.275 1922.36L887.859 1951.29L877.007 1943.26L879.684 1939.65L872.45 1934.29L875.127 1930.67L871.51 1928L874.187 1924.38L870.57 1921.7L873.247 1918.09L866.013 1912.73L863.336 1916.35L866.953 1919.03L861.599 1926.26L857.982 1923.58L855.305 1927.2L848.071 1921.85L850.748 1918.23ZM883.616 1873.82L879.999 1871.14L893.385 1853.06L897.002 1855.73L899.679 1852.12L906.913 1857.47L909.59 1853.85L931.292 1869.92L928.615 1873.53L935.85 1878.89L933.172 1882.5L936.79 1885.18L920.727 1906.88L917.11 1904.21L914.433 1907.82L907.199 1902.47L904.522 1906.09L886.436 1892.7L889.113 1889.08L881.879 1883.73L884.556 1880.11L880.939 1877.44L883.616 1873.82ZM898.882 1868.32L896.205 1871.94L899.822 1874.62L897.145 1878.23L907.996 1886.26L910.673 1882.65L914.29 1885.32L916.967 1881.71L913.35 1879.03L916.027 1875.41L905.176 1867.38L902.499 1871L898.882 1868.32Z" fill="black"/>
</g>
<g filter="url(#filter21_d_918_641)">
<path d="M556.995 1362.99L556.658 1357L592.602 1354.98L592.938 1360.97L598.929 1360.64L600.609 1390.59L594.618 1390.93L594.954 1396.92L588.964 1397.25L589.3 1403.24L583.309 1403.58L583.645 1409.57L589.636 1409.23L589.3 1403.24L601.281 1402.57L601.617 1408.56L607.607 1408.22L608.279 1420.21L602.289 1420.54L602.625 1426.53L554.7 1429.22L553.692 1411.25L559.683 1410.91L559.011 1398.93L565.001 1398.6L564.665 1392.61L570.656 1392.27L570.32 1386.28L576.31 1385.94L575.638 1373.96L569.648 1374.3L569.984 1380.29L558.003 1380.96L557.667 1374.97L551.676 1375.31L551.004 1363.32L556.995 1362.99ZM618.148 1359.56L617.812 1353.57L641.775 1352.22L642.111 1358.21L648.101 1357.88L651.462 1417.78L645.471 1418.12L645.807 1424.11L633.826 1424.78L633.49 1418.79L627.499 1419.13L625.147 1377.19L619.156 1377.53L618.82 1371.54L612.83 1371.88L612.158 1359.89L618.148 1359.56Z" fill="black"/>
</g>
<g filter="url(#filter22_d_918_641)">
<path d="M555.088 1854.37L555.386 1848.37L579.357 1849.57L579.058 1855.56L585.05 1855.86L582.062 1915.79L576.07 1915.49L575.771 1921.48L563.786 1920.88L564.084 1914.89L558.092 1914.59L560.184 1872.64L554.191 1872.34L554.49 1866.35L548.497 1866.05L549.095 1854.07L555.088 1854.37ZM598.284 1856.52L598.583 1850.53L640.531 1852.62L640.232 1858.61L646.224 1858.91L645.029 1882.88L639.036 1882.58L638.14 1900.56L632.147 1900.26L631.251 1918.24L625.258 1917.94L624.96 1923.93L606.982 1923.04L607.281 1917.04L601.288 1916.75L601.886 1904.76L607.878 1905.06L608.476 1893.07L614.469 1893.37L615.066 1881.39L621.059 1881.69L621.656 1869.7L615.664 1869.4L615.365 1875.39L597.387 1874.5L597.686 1868.51L591.694 1868.21L592.291 1856.22L598.284 1856.52Z" fill="black"/>
</g>
<g filter="url(#filter23_d_918_641)">
<path d="M203.131 592.281L203.385 586.286L227.364 587.301L227.11 593.296L233.104 593.549L230.567 653.496L224.573 653.242L224.319 659.237L212.33 658.729L212.584 652.735L206.589 652.481L208.365 610.518L202.37 610.265L202.624 604.27L196.629 604.016L197.137 592.027L203.131 592.281ZM252.337 594.363L252.591 588.369L288.559 589.891L288.051 601.88L282.057 601.626L281.803 607.621L263.819 606.86L263.565 612.855L281.549 613.616L281.296 619.61L287.29 619.864L287.037 625.859L293.031 626.112L292.016 650.091L286.022 649.837L285.768 655.832L279.773 655.578L279.52 661.573L243.552 660.051L243.806 654.056L237.811 653.802L238.318 641.813L244.313 642.067L244.567 636.072L250.561 636.326L250.815 630.331L262.804 630.839L262.551 636.833L268.545 637.087L268.799 631.092L262.804 630.839L263.058 624.844L245.074 624.083L246.343 594.11L252.337 594.363Z" fill="black"/>
</g>
<g filter="url(#filter24_d_918_641)">
<path d="M521.117 1601.53L521.32 1595.53L545.306 1596.34L545.104 1602.34L551.1 1602.54L549.077 1662.51L543.08 1662.31L542.878 1668.3L530.885 1667.9L531.087 1661.9L525.091 1661.7L526.507 1619.72L520.51 1619.52L520.713 1613.52L514.716 1613.32L515.121 1601.33L521.117 1601.53ZM570.339 1603.19L570.542 1597.19L582.535 1597.6L582.333 1603.6L588.329 1603.8L587.925 1615.79L581.928 1615.59L581.523 1627.58L593.516 1627.99L594.326 1604L600.322 1604.2L600.525 1598.21L612.518 1598.61L612.316 1604.61L618.312 1604.81L617.3 1634.79L611.304 1634.59L610.292 1664.57L604.296 1664.37L604.093 1670.37L592.1 1669.96L592.302 1663.97L586.306 1663.76L586.711 1651.77L574.717 1651.37L574.92 1645.37L562.927 1644.96L563.129 1638.97L557.132 1638.77L557.739 1620.78L563.736 1620.98L564.343 1602.99L570.339 1603.19Z" fill="black"/>
</g>
<g filter="url(#filter25_d_918_641)">
<path d="M857.731 594.336L858.521 588.389L882.312 591.55L881.522 597.497L887.469 598.288L879.567 657.765L873.619 656.975L872.829 662.922L860.934 661.342L861.724 655.394L855.776 654.604L861.308 612.97L855.36 612.18L856.15 606.232L850.202 605.442L851.783 593.546L857.731 594.336ZM906.552 600.823L907.342 594.875L943.028 599.616L942.238 605.564L948.186 606.354L945.025 630.145L939.077 629.355L938.287 635.303L944.235 636.093L943.444 642.041L949.392 642.831L947.021 660.674L941.074 659.884L940.284 665.832L934.336 665.042L933.546 670.989L903.807 667.038L904.597 661.09L892.702 659.51L893.492 653.562L887.544 652.772L888.334 646.824L894.282 647.615L895.072 641.667L901.02 642.457L901.81 636.509L913.706 638.09L912.916 644.037L918.863 644.828L920.444 632.932L914.496 632.142L915.286 626.194L921.234 626.984L922.814 615.089L916.867 614.299L916.076 620.247L904.181 618.666L904.971 612.718L899.023 611.928L900.604 600.033L906.552 600.823Z" fill="black"/>
</g>
<g filter="url(#filter26_d_918_641)">
<path d="M218.71 1366.71L219.193 1360.73L243.115 1362.66L242.633 1368.64L248.613 1369.12L243.793 1428.93L237.812 1428.44L237.33 1434.43L225.369 1433.46L225.851 1427.48L219.87 1427L223.245 1385.13L217.264 1384.65L217.746 1378.67L211.766 1378.19L212.73 1366.23L218.71 1366.71ZM261.821 1370.19L262.303 1364.2L298.186 1367.1L297.704 1373.08L303.685 1373.56L301.275 1403.46L295.294 1402.98L294.812 1408.96L288.831 1408.48L288.349 1414.46L282.369 1413.98L281.887 1419.96L287.867 1420.44L288.349 1414.46L300.31 1415.42L299.828 1421.4L305.809 1421.89L304.845 1433.85L298.864 1433.37L298.382 1439.35L250.537 1435.49L251.984 1417.55L257.964 1418.03L258.928 1406.07L264.909 1406.55L265.391 1400.57L271.372 1401.05L271.854 1395.07L277.834 1395.55L278.798 1383.59L272.818 1383.11L272.336 1389.09L260.374 1388.13L260.857 1382.15L254.876 1381.66L255.84 1369.7L261.821 1370.19Z" fill="black"/>
</g>
</g>
</g>
<defs>
<filter id="filter0_i_918_641" x="44" y="7.78162" width="1051" height="2337.22" filterUnits="userSpaceOnUse" color-interpolation-filters="sRGB">
<feFlood flood-opacity="0" result="BackgroundImageFix"/>
<feBlend mode="normal" in="SourceGraphic" in2="BackgroundImageFix" result="shape"/>
<feColorMatrix in="SourceAlpha" type="matrix" values="0 0 0 0 0 0 0 0 0 0 0 0 0 0 0 0 0 0 127 0" result="hardAlpha"/>
<feOffset dy="4"/>
<feGaussianBlur stdDeviation="2"/>
<feComposite in2="hardAlpha" operator="arithmetic" k2="-1" k3="1"/>
<feColorMatrix type="matrix" values="0 0 0 0 0 0 0 0 0 0 0 0 0 0 0 0 0 0 0.25 0"/>
<feBlend mode="normal" in2="shape" result="effect1_innerShadow_918_641"/>
</filter>
<filter id="filter1_i_918_641" x="70" y="46.5248" width="1000" height="2261.98" filterUnits="userSpaceOnUse" color-interpolation-filters="sRGB">
<feFlood flood-opacity="0" result="BackgroundImageFix"/>
<feBlend mode="normal" in="SourceGraphic" in2="BackgroundImageFix" result="shape"/>
<feColorMatrix in="SourceAlpha" type="matrix" values="0 0 0 0 0 0 0 0 0 0 0 0 0 0 0 0 0 0 127 0" result="hardAlpha"/>
<feOffset dy="4"/>
<feGaussianBlur stdDeviation="2"/>
<feComposite in2="hardAlpha" operator="arithmetic" k2="-1" k3="1"/>
<feColorMatrix type="matrix" values="0 0 0 0 0 0 0 0 0 0 0 0 0 0 0 0 0 0 0.25 0"/>
<feBlend mode="normal" in2="shape" result="effect1_innerShadow_918_641"/>
</filter>
<filter id="filter2_i_918_641" x="112" y="516" width="919" height="1744" filterUnits="userSpaceOnUse" color-interpolation-filters="sRGB">
<feFlood flood-opacity="0" result="BackgroundImageFix"/>
<feBlend mode="normal" in="SourceGraphic" in2="BackgroundImageFix" result="shape"/>
<feColorMatrix in="SourceAlpha" type="matrix" values="0 0 0 0 0 0 0 0 0 0 0 0 0 0 0 0 0 0 127 0" result="hardAlpha"/>
<feOffset dy="4"/>
<feGaussianBlur stdDeviation="2"/>
<feComposite in2="hardAlpha" operator="arithmetic" k2="-1" k3="1"/>
<feColorMatrix type="matrix" values="0 0 0 0 0 0 0 0 0 0 0 0 0 0 0 0 0 0 0.25 0"/>
<feBlend mode="normal" in2="shape" result="effect1_innerShadow_918_641"/>
</filter>
<filter id="filter3_i_918_641" x="121.391" y="89.1504" width="888.217" height="392.85" filterUnits="userSpaceOnUse" color-interpolation-filters="sRGB">
<feFlood flood-opacity="0" result="BackgroundImageFix"/>
<feBlend mode="normal" in="SourceGraphic" in2="BackgroundImageFix" result="shape"/>
<feColorMatrix in="SourceAlpha" type="matrix" values="0 0 0 0 0 0 0 0 0 0 0 0 0 0 0 0 0 0 127 0" result="hardAlpha"/>
<feOffset dy="4"/>
<feGaussianBlur stdDeviation="2"/>
<feComposite in2="hardAlpha" operator="arithmetic" k2="-1" k3="1"/>
<feColorMatrix type="matrix" values="0 0 0 0 0 0 0 0 0 0 0 0 0 0 0 0 0 0 0.25 0"/>
<feBlend mode="normal" in2="shape" result="effect1_innerShadow_918_641"/>
</filter>
<filter id="filter4_d_918_641" x="190.346" y="262.604" width="768.578" height="1945.28" filterUnits="userSpaceOnUse" color-interpolation-filters="sRGB">
<feFlood flood-opacity="0" result="BackgroundImageFix"/>
<feColorMatrix in="SourceAlpha" type="matrix" values="0 0 0 0 0 0 0 0 0 0 0 0 0 0 0 0 0 0 127 0" result="hardAlpha"/>
<feOffset dy="4"/>
<feGaussianBlur stdDeviation="2"/>
<feComposite in2="hardAlpha" operator="out"/>
<feColorMatrix type="matrix" values="0 0 0 0 0 0 0 0 0 0 0 0 0 0 0 0 0 0 0.25 0"/>
<feBlend mode="normal" in2="BackgroundImageFix" result="effect1_dropShadow_918_641"/>
<feBlend mode="normal" in="SourceGraphic" in2="effect1_dropShadow_918_641" result="shape"/>
</filter>
<filter id="filter5_d_918_641" x="433.344" y="262.604" width="262.677" height="154.525" filterUnits="userSpaceOnUse" color-interpolation-filters="sRGB">
<feFlood flood-opacity="0" result="BackgroundImageFix"/>
<feColorMatrix in="SourceAlpha" type="matrix" values="0 0 0 0 0 0 0 0 0 0 0 0 0 0 0 0 0 0 127 0" result="hardAlpha"/>
<feOffset dy="4"/>
<feGaussianBlur stdDeviation="2"/>
<feComposite in2="hardAlpha" operator="out"/>
<feColorMatrix type="matrix" values="0 0 0 0 0 0 0 0 0 0 0 0 0 0 0 0 0 0 0.25 0"/>
<feBlend mode="normal" in2="BackgroundImageFix" result="effect1_dropShadow_918_641"/>
<feBlend mode="normal" in="SourceGraphic" in2="effect1_dropShadow_918_641" result="shape"/>
</filter>
<filter id="filter6_d_918_641" x="237.652" y="2110.75" width="53.0913" height="84.0836" filterUnits="userSpaceOnUse" color-interpolation-filters="sRGB">
<feFlood flood-opacity="0" result="BackgroundImageFix"/>
<feColorMatrix in="SourceAlpha" type="matrix" values="0 0 0 0 0 0 0 0 0 0 0 0 0 0 0 0 0 0 127 0" result="hardAlpha"/>
<feOffset dy="4"/>
<feGaussianBlur stdDeviation="2"/>
<feComposite in2="hardAlpha" operator="out"/>
<feColorMatrix type="matrix" values="0 0 0 0 0 0 0 0 0 0 0 0 0 0 0 0 0 0 0.25 0"/>
<feBlend mode="normal" in2="BackgroundImageFix" result="effect1_dropShadow_918_641"/>
<feBlend mode="normal" in="SourceGraphic" in2="effect1_dropShadow_918_641" result="shape"/>
</filter>
<filter id="filter7_d_918_641" x="211.559" y="1104.29" width="65.8134" height="82.8139" filterUnits="userSpaceOnUse" color-interpolation-filters="sRGB">
<feFlood flood-opacity="0" result="BackgroundImageFix"/>
<feColorMatrix in="SourceAlpha" type="matrix" values="0 0 0 0 0 0 0 0 0 0 0 0 0 0 0 0 0 0 127 0" result="hardAlpha"/>
<feOffset dy="4"/>
<feGaussianBlur stdDeviation="2"/>
<feComposite in2="hardAlpha" operator="out"/>
<feColorMatrix type="matrix" values="0 0 0 0 0 0 0 0 0 0 0 0 0 0 0 0 0 0 0.25 0"/>
<feBlend mode="normal" in2="BackgroundImageFix" result="effect1_dropShadow_918_641"/>
<feBlend mode="normal" in="SourceGraphic" in2="effect1_dropShadow_918_641" result="shape"/>
</filter>
<filter id="filter8_d_918_641" x="543.829" y="587.388" width="69.3057" height="81.0844" filterUnits="userSpaceOnUse" color-interpolation-filters="sRGB">
<feFlood flood-opacity="0" result="BackgroundImageFix"/>
<feColorMatrix in="SourceAlpha" type="matrix" values="0 0 0 0 0 0 0 0 0 0 0 0 0 0 0 0 0 0 127 0" result="hardAlpha"/>
<feOffset dy="4"/>
<feGaussianBlur stdDeviation="2"/>
<feComposite in2="hardAlpha" operator="out"/>
<feColorMatrix type="matrix" values="0 0 0 0 0 0 0 0 0 0 0 0 0 0 0 0 0 0 0.25 0"/>
<feBlend mode="normal" in2="BackgroundImageFix" result="effect1_dropShadow_918_641"/>
<feBlend mode="normal" in="SourceGraphic" in2="effect1_dropShadow_918_641" result="shape"/>
</filter>
<filter id="filter9_d_918_641" x="544.073" y="1100.64" width="70.0623" height="81.7092" filterUnits="userSpaceOnUse" color-interpolation-filters="sRGB">
<feFlood flood-opacity="0" result="BackgroundImageFix"/>
<feColorMatrix in="SourceAlpha" type="matrix" values="0 0 0 0 0 0 0 0 0 0 0 0 0 0 0 0 0 0 127 0" result="hardAlpha"/>
<feOffset dy="4"/>
<feGaussianBlur stdDeviation="2"/>
<feComposite in2="hardAlpha" operator="out"/>
<feColorMatrix type="matrix" values="0 0 0 0 0 0 0 0 0 0 0 0 0 0 0 0 0 0 0.25 0"/>
<feBlend mode="normal" in2="BackgroundImageFix" result="effect1_dropShadow_918_641"/>
<feBlend mode="normal" in="SourceGraphic" in2="effect1_dropShadow_918_641" result="shape"/>
</filter>
<filter id="filter10_d_918_641" x="194.897" y="855.545" width="72.9771" height="87.8145" filterUnits="userSpaceOnUse" color-interpolation-filters="sRGB">
<feFlood flood-opacity="0" result="BackgroundImageFix"/>
<feColorMatrix in="SourceAlpha" type="matrix" values="0 0 0 0 0 0 0 0 0 0 0 0 0 0 0 0 0 0 127 0" result="hardAlpha"/>
<feOffset dy="4"/>
<feGaussianBlur stdDeviation="2"/>
<feComposite in2="hardAlpha" operator="out"/>
<feColorMatrix type="matrix" values="0 0 0 0 0 0 0 0 0 0 0 0 0 0 0 0 0 0 0.25 0"/>
<feBlend mode="normal" in2="BackgroundImageFix" result="effect1_dropShadow_918_641"/>
<feBlend mode="normal" in="SourceGraphic" in2="effect1_dropShadow_918_641" result="shape"/>
</filter>
<filter id="filter11_d_918_641" x="866.022" y="1093.83" width="67.4238" height="83.9731" filterUnits="userSpaceOnUse" color-interpolation-filters="sRGB">
<feFlood flood-opacity="0" result="BackgroundImageFix"/>
<feColorMatrix in="SourceAlpha" type="matrix" values="0 0 0 0 0 0 0 0 0 0 0 0 0 0 0 0 0 0 127 0" result="hardAlpha"/>
<feOffset dy="4"/>
<feGaussianBlur stdDeviation="2"/>
<feComposite in2="hardAlpha" operator="out"/>
<feColorMatrix type="matrix" values="0 0 0 0 0 0 0 0 0 0 0 0 0 0 0 0 0 0 0.25 0"/>
<feBlend mode="normal" in2="BackgroundImageFix" result="effect1_dropShadow_918_641"/>
<feBlend mode="normal" in="SourceGraphic" in2="effect1_dropShadow_918_641" result="shape"/>
</filter>
<filter id="filter12_d_918_641" x="234.457" y="1845.49" width="67.0676" height="83.7182" filterUnits="userSpaceOnUse" color-interpolation-filters="sRGB">
<feFlood flood-opacity="0" result="BackgroundImageFix"/>
<feColorMatrix in="SourceAlpha" type="matrix" values="0 0 0 0 0 0 0 0 0 0 0 0 0 0 0 0 0 0 127 0" result="hardAlpha"/>
<feOffset dy="4"/>
<feGaussianBlur stdDeviation="2"/>
<feComposite in2="hardAlpha" operator="out"/>
<feColorMatrix type="matrix" values="0 0 0 0 0 0 0 0 0 0 0 0 0 0 0 0 0 0 0.25 0"/>
<feBlend mode="normal" in2="BackgroundImageFix" result="effect1_dropShadow_918_641"/>
<feBlend mode="normal" in="SourceGraphic" in2="effect1_dropShadow_918_641" result="shape"/>
</filter>
<filter id="filter13_d_918_641" x="850.552" y="824.589" width="83.6941" height="92.4193" filterUnits="userSpaceOnUse" color-interpolation-filters="sRGB">
<feFlood flood-opacity="0" result="BackgroundImageFix"/>
<feColorMatrix in="SourceAlpha" type="matrix" values="0 0 0 0 0 0 0 0 0 0 0 0 0 0 0 0 0 0 127 0" result="hardAlpha"/>
<feOffset dy="4"/>
<feGaussianBlur stdDeviation="2"/>
<feComposite in2="hardAlpha" operator="out"/>
<feColorMatrix type="matrix" values="0 0 0 0 0 0 0 0 0 0 0 0 0 0 0 0 0 0 0.25 0"/>
<feBlend mode="normal" in2="BackgroundImageFix" result="effect1_dropShadow_918_641"/>
<feBlend mode="normal" in="SourceGraphic" in2="effect1_dropShadow_918_641" result="shape"/>
</filter>
<filter id="filter14_d_918_641" x="231.111" y="1609.73" width="67.2557" height="83.8529" filterUnits="userSpaceOnUse" color-interpolation-filters="sRGB">
<feFlood flood-opacity="0" result="BackgroundImageFix"/>
<feColorMatrix in="SourceAlpha" type="matrix" values="0 0 0 0 0 0 0 0 0 0 0 0 0 0 0 0 0 0 127 0" result="hardAlpha"/>
<feOffset dy="4"/>
<feGaussianBlur stdDeviation="2"/>
<feComposite in2="hardAlpha" operator="out"/>
<feColorMatrix type="matrix" values="0 0 0 0 0 0 0 0 0 0 0 0 0 0 0 0 0 0 0.25 0"/>
<feBlend mode="normal" in2="BackgroundImageFix" result="effect1_dropShadow_918_641"/>
<feBlend mode="normal" in="SourceGraphic" in2="effect1_dropShadow_918_641" result="shape"/>
</filter>
<filter id="filter15_d_918_641" x="517.184" y="2083.22" width="117.451" height="89.2161" filterUnits="userSpaceOnUse" color-interpolation-filters="sRGB">
<feFlood flood-opacity="0" result="BackgroundImageFix"/>
<feColorMatrix in="SourceAlpha" type="matrix" values="0 0 0 0 0 0 0 0 0 0 0 0 0 0 0 0 0 0 127 0" result="hardAlpha"/>
<feOffset dy="4"/>
<feGaussianBlur stdDeviation="2"/>
<feComposite in2="hardAlpha" operator="out"/>
<feColorMatrix type="matrix" values="0 0 0 0 0 0 0 0 0 0 0 0 0 0 0 0 0 0 0.25 0"/>
<feBlend mode="normal" in2="BackgroundImageFix" result="effect1_dropShadow_918_641"/>
<feBlend mode="normal" in="SourceGraphic" in2="effect1_dropShadow_918_641" result="shape"/>
</filter>
<filter id="filter16_d_918_641" x="853.182" y="1595.36" width="90.8931" height="84.0305" filterUnits="userSpaceOnUse" color-interpolation-filters="sRGB">
<feFlood flood-opacity="0" result="BackgroundImageFix"/>
<feColorMatrix in="SourceAlpha" type="matrix" values="0 0 0 0 0 0 0 0 0 0 0 0 0 0 0 0 0 0 127 0" result="hardAlpha"/>
<feOffset dy="4"/>
<feGaussianBlur stdDeviation="2"/>
<feComposite in2="hardAlpha" operator="out"/>
<feColorMatrix type="matrix" values="0 0 0 0 0 0 0 0 0 0 0 0 0 0 0 0 0 0 0.25 0"/>
<feBlend mode="normal" in2="BackgroundImageFix" result="effect1_dropShadow_918_641"/>
<feBlend mode="normal" in="SourceGraphic" in2="effect1_dropShadow_918_641" result="shape"/>
</filter>
<filter id="filter17_d_918_641" x="845.753" y="2122.6" width="109.094" height="85.2831" filterUnits="userSpaceOnUse" color-interpolation-filters="sRGB">
<feFlood flood-opacity="0" result="BackgroundImageFix"/>
<feColorMatrix in="SourceAlpha" type="matrix" values="0 0 0 0 0 0 0 0 0 0 0 0 0 0 0 0 0 0 127 0" result="hardAlpha"/>
<feOffset dy="4"/>
<feGaussianBlur stdDeviation="2"/>
<feComposite in2="hardAlpha" operator="out"/>
<feColorMatrix type="matrix" values="0 0 0 0 0 0 0 0 0 0 0 0 0 0 0 0 0 0 0.25 0"/>
<feBlend mode="normal" in2="BackgroundImageFix" result="effect1_dropShadow_918_641"/>
<feBlend mode="normal" in="SourceGraphic" in2="effect1_dropShadow_918_641" result="shape"/>
</filter>
<filter id="filter18_d_918_641" x="492.84" y="838.62" width="113.781" height="83.6788" filterUnits="userSpaceOnUse" color-interpolation-filters="sRGB">
<feFlood flood-opacity="0" result="BackgroundImageFix"/>
<feColorMatrix in="SourceAlpha" type="matrix" values="0 0 0 0 0 0 0 0 0 0 0 0 0 0 0 0 0 0 127 0" result="hardAlpha"/>
<feOffset dy="4"/>
<feGaussianBlur stdDeviation="2"/>
<feComposite in2="hardAlpha" operator="out"/>
<feColorMatrix type="matrix" values="0 0 0 0 0 0 0 0 0 0 0 0 0 0 0 0 0 0 0.25 0"/>
<feBlend mode="normal" in2="BackgroundImageFix" result="effect1_dropShadow_918_641"/>
<feBlend mode="normal" in="SourceGraphic" in2="effect1_dropShadow_918_641" result="shape"/>
</filter>
<filter id="filter19_d_918_641" x="839.8" y="1343.34" width="109.762" height="86.2219" filterUnits="userSpaceOnUse" color-interpolation-filters="sRGB">
<feFlood flood-opacity="0" result="BackgroundImageFix"/>
<feColorMatrix in="SourceAlpha" type="matrix" values="0 0 0 0 0 0 0 0 0 0 0 0 0 0 0 0 0 0 127 0" result="hardAlpha"/>
<feOffset dy="4"/>
<feGaussianBlur stdDeviation="2"/>
<feComposite in2="hardAlpha" operator="out"/>
<feColorMatrix type="matrix" values="0 0 0 0 0 0 0 0 0 0 0 0 0 0 0 0 0 0 0.25 0"/>
<feBlend mode="normal" in2="BackgroundImageFix" result="effect1_dropShadow_918_641"/>
<feBlend mode="normal" in="SourceGraphic" in2="effect1_dropShadow_918_641" result="shape"/>
</filter>
<filter id="filter20_d_918_641" x="840.454" y="1845.82" width="105.69" height="113.471" filterUnits="userSpaceOnUse" color-interpolation-filters="sRGB">
<feFlood flood-opacity="0" result="BackgroundImageFix"/>
<feColorMatrix in="SourceAlpha" type="matrix" values="0 0 0 0 0 0 0 0 0 0 0 0 0 0 0 0 0 0 127 0" result="hardAlpha"/>
<feOffset dy="4"/>
<feGaussianBlur stdDeviation="2"/>
<feComposite in2="hardAlpha" operator="out"/>
<feColorMatrix type="matrix" values="0 0 0 0 0 0 0 0 0 0 0 0 0 0 0 0 0 0 0.25 0"/>
<feBlend mode="normal" in2="BackgroundImageFix" result="effect1_dropShadow_918_641"/>
<feBlend mode="normal" in="SourceGraphic" in2="effect1_dropShadow_918_641" result="shape"/>
</filter>
<filter id="filter21_d_918_641" x="546.668" y="1351.89" width="109.13" height="85.3335" filterUnits="userSpaceOnUse" color-interpolation-filters="sRGB">
<feFlood flood-opacity="0" result="BackgroundImageFix"/>
<feColorMatrix in="SourceAlpha" type="matrix" values="0 0 0 0 0 0 0 0 0 0 0 0 0 0 0 0 0 0 127 0" result="hardAlpha"/>
<feOffset dy="4"/>
<feGaussianBlur stdDeviation="2"/>
<feComposite in2="hardAlpha" operator="out"/>
<feColorMatrix type="matrix" values="0 0 0 0 0 0 0 0 0 0 0 0 0 0 0 0 0 0 0.25 0"/>
<feBlend mode="normal" in2="BackgroundImageFix" result="effect1_dropShadow_918_641"/>
<feBlend mode="normal" in="SourceGraphic" in2="effect1_dropShadow_918_641" result="shape"/>
</filter>
<filter id="filter22_d_918_641" x="541.808" y="1848.08" width="108.715" height="84.7542" filterUnits="userSpaceOnUse" color-interpolation-filters="sRGB">
<feFlood flood-opacity="0" result="BackgroundImageFix"/>
<feColorMatrix in="SourceAlpha" type="matrix" values="0 0 0 0 0 0 0 0 0 0 0 0 0 0 0 0 0 0 127 0" result="hardAlpha"/>
<feOffset dy="4"/>
<feGaussianBlur stdDeviation="2"/>
<feComposite in2="hardAlpha" operator="out"/>
<feColorMatrix type="matrix" values="0 0 0 0 0 0 0 0 0 0 0 0 0 0 0 0 0 0 0.25 0"/>
<feBlend mode="normal" in2="BackgroundImageFix" result="effect1_dropShadow_918_641"/>
<feBlend mode="normal" in="SourceGraphic" in2="effect1_dropShadow_918_641" result="shape"/>
</filter>
<filter id="filter23_d_918_641" x="190.346" y="586.032" width="108.208" height="84.0477" filterUnits="userSpaceOnUse" color-interpolation-filters="sRGB">
<feFlood flood-opacity="0" result="BackgroundImageFix"/>
<feColorMatrix in="SourceAlpha" type="matrix" values="0 0 0 0 0 0 0 0 0 0 0 0 0 0 0 0 0 0 127 0" result="hardAlpha"/>
<feOffset dy="4"/>
<feGaussianBlur stdDeviation="2"/>
<feComposite in2="hardAlpha" operator="out"/>
<feColorMatrix type="matrix" values="0 0 0 0 0 0 0 0 0 0 0 0 0 0 0 0 0 0 0.25 0"/>
<feBlend mode="normal" in2="BackgroundImageFix" result="effect1_dropShadow_918_641"/>
<feBlend mode="normal" in="SourceGraphic" in2="effect1_dropShadow_918_641" result="shape"/>
</filter>
<filter id="filter24_d_918_641" x="508.895" y="1595.33" width="113.619" height="83.4409" filterUnits="userSpaceOnUse" color-interpolation-filters="sRGB">
<feFlood flood-opacity="0" result="BackgroundImageFix"/>
<feColorMatrix in="SourceAlpha" type="matrix" values="0 0 0 0 0 0 0 0 0 0 0 0 0 0 0 0 0 0 127 0" result="hardAlpha"/>
<feOffset dy="4"/>
<feGaussianBlur stdDeviation="2"/>
<feComposite in2="hardAlpha" operator="out"/>
<feColorMatrix type="matrix" values="0 0 0 0 0 0 0 0 0 0 0 0 0 0 0 0 0 0 0.25 0"/>
<feBlend mode="normal" in2="BackgroundImageFix" result="effect1_dropShadow_918_641"/>
<feBlend mode="normal" in="SourceGraphic" in2="effect1_dropShadow_918_641" result="shape"/>
</filter>
<filter id="filter25_d_918_641" x="839.09" y="587.599" width="119.833" height="92.9713" filterUnits="userSpaceOnUse" color-interpolation-filters="sRGB">
<feFlood flood-opacity="0" result="BackgroundImageFix"/>
<feColorMatrix in="SourceAlpha" type="matrix" values="0 0 0 0 0 0 0 0 0 0 0 0 0 0 0 0 0 0 127 0" result="hardAlpha"/>
<feOffset dy="4"/>
<feGaussianBlur stdDeviation="2"/>
<feComposite in2="hardAlpha" operator="out"/>
<feColorMatrix type="matrix" values="0 0 0 0 0 0 0 0 0 0 0 0 0 0 0 0 0 0 0.25 0"/>
<feBlend mode="normal" in2="BackgroundImageFix" result="effect1_dropShadow_918_641"/>
<feBlend mode="normal" in="SourceGraphic" in2="effect1_dropShadow_918_641" result="shape"/>
</filter>
<filter id="filter26_d_918_641" x="203.427" y="1360.25" width="110.72" height="87.5807" filterUnits="userSpaceOnUse" color-interpolation-filters="sRGB">
<feFlood flood-opacity="0" result="BackgroundImageFix"/>
<feColorMatrix in="SourceAlpha" type="matrix" values="0 0 0 0 0 0 0 0 0 0 0 0 0 0 0 0 0 0 127 0" result="hardAlpha"/>
<feOffset dy="4"/>
<feGaussianBlur stdDeviation="2"/>
<feComposite in2="hardAlpha" operator="out"/>
<feColorMatrix type="matrix" values="0 0 0 0 0 0 0 0 0 0 0 0 0 0 0 0 0 0 0.25 0"/>
<feBlend mode="normal" in2="BackgroundImageFix" result="effect1_dropShadow_918_641"/>
<feBlend mode="normal" in="SourceGraphic" in2="effect1_dropShadow_918_641" result="shape"/>
</filter>
</defs>
</svg>
