<svg width="1105" height="1105" viewBox="0 0 1105 1105" fill="none" xmlns="http://www.w3.org/2000/svg">
<path d="M1105 552.5C1105 857.637 857.637 1105 552.5 1105C247.363 1105 0 857.637 0 552.5C0 247.363 247.363 0 552.5 0C857.637 0 1105 247.363 1105 552.5Z" fill="url(#paint0_linear_4_0)"/>
<g filter="url(#filter0_i_4_0)">
<path d="M557.112 557.293L485.525 23.034L632.944 23.6198L557.112 557.293Z" fill="#36CA20"/>
<path d="M557.677 556.91L344.401 61.8643L486.495 22.5973L557.677 556.91Z" fill="#D9D9D9"/>
<path d="M557.857 556.854L217.883 138.554L343.924 62.0916L557.857 556.854Z" fill="#FD3535"/>
<path d="M558.138 556.234L117.789 245.348L218.483 137.675L558.138 556.234Z" fill="#D9D9D9"/>
<path d="M561.636 552.856L51.4606 378.851L117.682 247.141L561.636 552.856Z" fill="#FD3535"/>
<path d="M561.545 552.18L23.3303 522.491L51.5022 377.787L561.545 552.18Z" fill="#D9D9D9"/>
<path d="M561.575 551.994L35.6011 669.927L23.3213 523.019L561.575 551.994Z" fill="#FD3535"/>
<path d="M561.145 551.466L86.5975 807.124L35.0816 668.998L561.145 551.466Z" fill="#D9D9D9"/>
<path d="M547.54 547.225L1080.67 626.76L1039.19 768.223L547.54 547.225Z" fill="#FD3535"/>
<path d="M547.75 547.873L1082.54 480.404L1080.82 627.814L547.75 547.873Z" fill="#D9D9D9"/>
<path d="M547.446 552.726L1041.47 337.101L1081.41 479.007L547.446 552.726Z" fill="#FD3535"/>
<path d="M547.968 553.164L965.362 212.078L1042.16 337.914L547.968 553.164Z" fill="#D9D9D9"/>
<path d="M548.072 553.321L856.862 111.501L965.013 211.682L548.072 553.321Z" fill="#FD3535"/>
<path d="M548.143 563.957L611.624 20.8418L752.167 56.6325L548.143 563.957Z" fill="#36CA20"/>
<path d="M548.746 553.422L726.676 44.6017L857.872 111.836L548.746 553.422Z" fill="#D9D9D9"/>
<path d="M555.71 543.94L176.892 927.417L87.167 810.445L555.71 543.94Z" fill="#FD3535"/>
<path d="M555.062 543.728L293.944 1015.29L175.952 926.916L555.062 543.728Z" fill="#D9D9D9"/>
<path d="M554.908 543.62L432.008 1068.46L294.415 1015.53L554.908 543.62Z" fill="#FD3535"/>
<path d="M554.244 543.777L577.721 1082.3L430.946 1068.52L554.244 543.777Z" fill="#D9D9D9"/>
<path d="M549.433 543.076L723.904 1053.09L579.205 1081.29L549.433 543.076Z" fill="#FD3535"/>
<path d="M548.954 543.561L854.737 987.469L723.037 1053.71L548.954 543.561Z" fill="#D9D9D9"/>
<path d="M548.788 543.652L963.856 887.564L855.16 987.153L548.788 543.652Z" fill="#FD3535"/>
<path d="M548.633 544.315L1041.18 763.29L963.439 888.543L548.633 544.315Z" fill="#D9D9D9"/>
</g>
<g filter="url(#filter1_d_4_0)">
<path d="M746 552C746 658.591 659.591 745 553 745C446.409 745 360 658.591 360 552C360 445.409 446.409 359 553 359C659.591 359 746 445.409 746 552Z" fill="#363533"/>
<path d="M745.5 552C745.5 658.315 659.315 744.5 553 744.5C446.685 744.5 360.5 658.315 360.5 552C360.5 445.685 446.685 359.5 553 359.5C659.315 359.5 745.5 445.685 745.5 552Z" stroke="black"/>
</g>
<g filter="url(#filter2_d_4_0)">
<path d="M549.023 103.516L549.617 97.5451L579.47 100.514L578.876 106.484L584.847 107.078L583.659 119.019L589.63 119.613L586.067 155.436L580.097 154.842L578.909 166.784L572.939 166.19L572.345 172.16L536.522 168.598L537.115 162.627L531.145 162.034L532.332 150.093L526.362 149.499L529.33 119.646L535.301 120.24L536.488 108.299L542.459 108.892L543.053 102.922L549.023 103.516ZM565.747 117.238L559.777 116.644L559.183 122.615L553.213 122.021L551.431 139.933L557.402 140.526L556.808 146.497L562.779 147.091L563.373 141.12L569.343 141.714L571.124 123.802L565.154 123.208L565.747 117.238ZM615.943 110.17L616.537 104.2L646.39 107.168L645.796 113.139L651.767 113.733L650.579 125.674L656.55 126.267L652.987 162.091L647.017 161.497L645.829 173.438L639.859 172.844L639.265 178.815L603.442 175.253L604.035 169.282L598.065 168.688L599.252 156.747L593.282 156.154L596.25 126.301L602.221 126.895L603.408 114.953L609.379 115.547L609.973 109.577L615.943 110.17ZM632.667 123.893L626.697 123.299L626.103 129.269L620.133 128.676L618.351 146.587L624.322 147.181L623.728 153.152L629.699 153.745L630.293 147.775L636.263 148.369L638.044 130.457L632.074 129.863L632.667 123.893Z" fill="black"/>
</g>
<g filter="url(#filter3_d_4_0)">
<path d="M223.306 240.164L220.092 235.098L240.358 222.242L243.572 227.308L248.639 224.094L280.779 274.76L275.712 277.974L278.926 283.041L268.793 289.469L265.579 284.402L260.512 287.616L238.015 252.15L232.948 255.364L229.734 250.297L224.667 253.511L218.239 243.378L223.306 240.164Z" fill="black"/>
</g>
<g filter="url(#filter4_d_4_0)">
<path d="M971.888 788.502L976.521 792.315L953.644 820.112L949.011 816.299L945.198 820.932L922.035 801.868L925.847 797.235L921.215 793.422L925.027 788.789L920.395 784.976L924.207 780.344L919.575 776.531L915.762 781.164L920.395 784.976L912.769 794.242L908.136 790.429L904.323 795.062L895.058 787.436L898.871 782.804L894.238 778.991L924.74 741.929L938.639 753.367L934.826 758L944.091 765.625L940.279 770.258L944.911 774.071L941.099 778.704L945.731 782.517L941.919 787.149L951.184 794.775L954.997 790.142L950.364 786.329L957.99 777.064L962.622 780.877L966.435 776.244L975.701 783.869L971.888 788.502Z" fill="black"/>
</g>
<g filter="url(#filter5_d_4_0)">
<path d="M872.432 215.649L877.969 213.338L891.838 246.559L886.302 248.87L888.613 254.407L866.466 263.653L864.154 258.117L858.617 260.428L860.929 265.965L855.392 268.276L857.704 273.813L841.093 280.748L838.781 275.211L833.245 277.523L830.933 271.986L825.396 274.297L813.839 246.613L819.375 244.301L814.752 233.228L820.289 230.916L817.978 225.379L823.515 223.068L825.826 228.605L831.363 226.293L833.674 231.83L839.211 229.518L843.834 240.592L838.297 242.904L840.609 248.441L851.683 243.818L849.371 238.281L854.908 235.969L857.22 241.506L868.293 236.883L865.982 231.346L860.445 233.658L855.822 222.584L861.359 220.272L859.047 214.735L870.121 210.112L872.432 215.649Z" fill="black"/>
</g>
<g filter="url(#filter6_d_4_0)">
<path d="M879.755 877.893L883.018 882.928L872.948 889.454L869.685 884.419L864.65 887.682L858.124 877.611L863.159 874.348L856.633 864.278L846.563 870.804L859.615 890.945L854.579 894.208L857.842 899.243L847.772 905.769L844.509 900.733L839.474 903.996L823.159 878.82L828.194 875.557L811.88 850.381L816.915 847.118L813.652 842.083L823.723 835.557L826.985 840.593L832.021 837.33L838.546 847.4L848.617 840.874L851.88 845.909L861.95 839.384L865.213 844.419L870.248 841.156L880.037 856.262L875.002 859.525L884.791 874.63L879.755 877.893Z" fill="black"/>
</g>
<g filter="url(#filter7_d_4_0)">
<path d="M1005.61 436.418L1011.54 437.339L1006.01 472.912L994.151 471.069L995.072 465.14L989.144 464.219L991.908 446.432L985.979 445.511L983.215 463.297L977.286 462.375L976.364 468.304L970.436 467.383L969.514 473.312L945.799 469.625L946.72 463.696L940.792 462.775L941.713 456.846L935.784 455.925L941.314 420.352L947.242 421.273L948.164 415.344L960.022 417.188L959.1 423.116L965.029 424.038L964.107 429.967L970.036 430.888L968.193 442.746L962.264 441.824L961.343 447.753L967.271 448.675L968.193 442.746L974.122 443.667L976.886 425.881L1006.53 430.489L1005.61 436.418Z" fill="black"/>
</g>
<g filter="url(#filter8_d_4_0)">
<path d="M763.066 952.964L765.45 958.47L748.932 965.622L746.548 960.116L741.042 962.5L736.274 951.488L741.78 949.104L739.396 943.598L733.89 945.982L731.506 940.475L726 942.859L723.616 937.353L718.11 939.737L708.574 917.713L714.08 915.329L711.696 909.823L717.203 907.439L714.819 901.933L742.349 890.013L744.733 895.519L750.239 893.135L752.623 898.642L758.129 896.258L770.049 923.788L764.543 926.172L769.31 937.184L763.804 939.568L768.572 950.58L763.066 952.964ZM737.75 924.695L748.763 919.928L743.995 908.915L732.983 913.683L737.75 924.695Z" fill="black"/>
</g>
<g filter="url(#filter9_d_4_0)">
<path d="M68.5364 617.287L62.5405 617.067L64.0857 575.095L70.0816 575.316L70.3024 569.32L94.2861 570.203L94.0654 576.199L112.053 576.861L111.832 582.857L129.82 583.519L129.6 589.515L135.595 589.736L134.933 607.724L128.937 607.503L128.717 613.499L116.725 613.057L116.945 607.061L104.954 606.62L105.174 600.624L93.1824 600.183L93.4031 594.187L81.4113 593.745L81.1905 599.741L87.1865 599.962L86.5242 617.95L80.5283 617.729L80.3075 623.725L68.3157 623.283L68.5364 617.287Z" fill="black"/>
</g>
<g filter="url(#filter10_d_4_0)">
<path d="M1009.33 700.977L1013.24 705.525L985.954 729.006L982.04 724.458L977.492 728.371L961.838 710.179L966.386 706.265L962.473 701.717L957.925 705.631L954.011 701.083L949.463 704.996L933.809 686.804L938.357 682.89L934.444 678.342L970.829 647.035L974.742 651.583L979.29 647.669L994.944 665.862L990.396 669.775L994.309 674.323L989.761 678.237L993.675 682.785L998.223 678.871L1013.88 697.063L1009.33 700.977ZM983.309 707.535L992.405 699.708L988.492 695.16L979.396 702.986L983.309 707.535ZM967.655 689.342L976.752 681.515L972.838 676.967L963.742 684.794L967.655 689.342Z" fill="black"/>
</g>
<g filter="url(#filter11_d_4_0)">
<path d="M287.63 933.715L283.989 938.484L260.143 920.281L263.783 915.512L259.014 911.871L262.654 907.102L257.885 903.461L279.729 874.846L284.498 878.486L291.779 868.948L296.549 872.588L300.189 867.819L304.958 871.46L308.599 866.69L322.907 877.612L319.266 882.382L324.036 886.022L316.754 895.561L311.985 891.92L308.345 896.689L313.114 900.33L309.473 905.099L314.242 908.74L310.602 913.509L315.371 917.15L300.809 936.227L296.039 932.586L292.399 937.356L287.63 933.715ZM275.834 909.614L285.372 916.895L292.653 907.357L283.115 900.075L275.834 909.614Z" fill="black"/>
</g>
<g filter="url(#filter12_d_4_0)">
<path d="M307.195 201.94L305.023 197.999L320.786 189.31L322.959 193.251L326.9 191.078L348.623 230.488L344.682 232.66L346.854 236.601L338.972 240.946L336.8 237.005L332.859 239.177L317.653 211.591L313.712 213.763L311.54 209.822L307.599 211.994L303.254 204.112L307.195 201.94ZM343.758 181.786L341.586 177.845L361.29 166.983L363.463 170.924L367.404 168.752L371.748 176.634L375.689 174.461L388.723 198.107L384.782 200.279L389.127 208.161L385.186 210.333L387.358 214.274L363.713 227.308L361.54 223.367L357.599 225.54L353.255 217.658L349.314 219.83L338.452 200.125L342.393 197.953L338.048 190.071L341.989 187.899L339.817 183.958L343.758 181.786ZM359.925 183.151L355.985 185.323L358.157 189.264L354.216 191.436L360.733 203.259L364.674 201.087L366.846 205.028L370.787 202.855L368.615 198.914L372.556 196.742L366.039 184.919L362.098 187.091L359.925 183.151Z" fill="black"/>
</g>
<g filter="url(#filter13_d_4_0)">
<path d="M145.491 735.111L141.627 737.418L132.4 721.963L136.264 719.656L133.957 715.792L172.595 692.725L174.902 696.589L178.766 694.282L183.379 702.01L179.515 704.317L181.822 708.18L154.775 724.327L157.082 728.191L153.218 730.498L155.525 734.362L147.797 738.975L145.491 735.111ZM128.703 706.991L124.839 709.298L115.612 693.843L119.476 691.536L117.169 687.672L155.808 664.605L158.114 668.469L161.978 666.162L166.592 673.89L162.728 676.196L165.034 680.06L137.988 696.207L140.294 700.071L136.431 702.378L138.737 706.242L131.01 710.855L128.703 706.991Z" fill="black"/>
</g>
<g filter="url(#filter14_d_4_0)">
<path d="M406.826 124.791L405.682 120.439L423.092 115.865L424.235 120.218L428.587 119.074L440.021 162.597L435.669 163.741L436.812 168.093L428.108 170.38L426.964 166.027L422.612 167.171L414.608 136.705L410.256 137.848L409.112 133.496L404.76 134.639L402.473 125.934L406.826 124.791ZM447.205 114.183L446.062 109.831L459.119 106.4L460.262 110.753L464.615 109.609L466.902 118.314L462.549 119.457L463.693 123.81L468.045 122.666L469.188 127.019L473.541 125.875L474.684 130.228L479.036 129.084L483.61 146.493L479.258 147.637L480.401 151.989L476.049 153.133L477.192 157.485L455.43 163.202L454.287 158.85L449.935 159.993L448.791 155.641L444.439 156.784L438.722 135.022L443.074 133.879L440.788 125.174L445.14 124.031L442.853 115.326L447.205 114.183ZM462.77 138.01L454.066 140.297L456.353 149.001L465.057 146.715L462.77 138.01Z" fill="black"/>
</g>
<g filter="url(#filter15_d_4_0)">
<path d="M1015.89 528.353L1020.37 528.815L1018.52 546.72L1014.05 546.259L1013.59 550.735L968.822 546.123L969.283 541.647L964.807 541.186L965.73 532.233L970.206 532.694L970.667 528.218L1002 531.446L1002.46 526.97L1006.94 527.431L1007.4 522.955L1016.35 523.877L1015.89 528.353ZM1012.07 565.407L1016.55 565.868L1013.78 592.726L1009.31 592.265L1008.85 596.741L990.94 594.897L991.401 590.42L986.925 589.959L986.464 594.435L981.988 593.974L981.526 598.451L963.621 596.606L964.082 592.129L959.606 591.668L963.295 555.858L967.772 556.319L968.233 551.843L986.138 553.687L985.677 558.164L990.153 558.625L989.692 563.101L994.168 563.562L994.63 559.086L1012.53 560.931L1012.07 565.407ZM1001.28 582.39L1002.2 573.437L997.722 572.976L996.8 581.929L1001.28 582.39ZM983.371 580.545L984.293 571.593L979.817 571.131L978.895 580.084L983.371 580.545Z" fill="black"/>
</g>
<g filter="url(#filter16_d_4_0)">
<path d="M422.595 984.049L420.968 988.245L404.186 981.735L405.814 977.539L401.618 975.912L417.893 933.958L422.089 935.585L423.716 931.39L432.107 934.645L430.479 938.84L434.675 940.468L423.282 969.836L427.478 971.463L425.85 975.658L430.046 977.286L426.791 985.677L422.595 984.049ZM387.867 970.577L386.239 974.773L365.262 966.635L366.89 962.44L362.694 960.812L364.322 956.617L360.127 954.989L369.891 929.817L374.087 931.445L377.342 923.054L381.537 924.681L383.165 920.486L387.36 922.113L388.988 917.918L401.574 922.8L399.946 926.996L404.142 928.623L400.887 937.014L396.691 935.387L395.064 939.582L399.259 941.209L397.632 945.405L401.827 947.032L400.2 951.228L404.395 952.855L397.885 969.637L393.69 968.009L392.062 972.205L387.867 970.577ZM374.34 955.676L382.731 958.931L385.986 950.541L377.595 947.286L374.34 955.676Z" fill="black"/>
</g>
<g filter="url(#filter17_d_4_0)">
<path d="M99.7478 355.229L96.1307 352.552L112.193 330.849L115.81 333.526L118.487 329.909L136.573 343.294L133.896 346.912L137.513 349.589L134.836 353.206L138.453 355.883L135.776 359.5L139.393 362.177L142.07 358.56L138.453 355.883L143.807 348.649L147.424 351.326L150.101 347.709L157.335 353.063L154.658 356.68L158.275 359.357L136.859 388.294L126.007 380.262L128.684 376.645L121.45 371.291L124.127 367.674L120.51 364.997L123.187 361.38L119.57 358.703L122.247 355.086L115.013 349.732L112.336 353.349L115.953 356.026L110.599 363.26L106.982 360.583L104.305 364.2L97.0707 358.846L99.7478 355.229ZM132.616 310.819L128.999 308.142L142.385 290.056L146.002 292.734L148.679 289.116L155.913 294.471L158.59 290.854L180.292 306.916L177.615 310.533L184.85 315.887L182.172 319.504L185.79 322.181L169.727 343.884L166.11 341.207L163.433 344.824L156.199 339.47L153.522 343.087L135.436 329.701L138.113 326.084L130.879 320.73L133.556 317.113L129.939 314.436L132.616 310.819ZM147.882 305.322L145.205 308.939L148.822 311.616L146.145 315.233L156.996 323.264L159.673 319.647L163.29 322.324L165.967 318.707L162.35 316.03L165.027 312.413L154.176 304.382L151.499 307.999L147.882 305.322Z" fill="black"/>
</g>
<g filter="url(#filter18_d_4_0)">
<path d="M534.304 997.899L533.281 1002.28L506.989 996.141L508.012 991.759L503.63 990.736L508.747 968.825L513.129 969.849L514.152 965.467L518.534 966.49L519.558 962.108L523.94 963.131L524.963 958.749L520.581 957.726L519.558 962.108L510.794 960.061L511.817 955.679L507.435 954.656L509.482 945.891L513.864 946.915L514.887 942.533L549.944 950.72L546.874 963.866L542.492 962.843L540.445 971.607L536.063 970.584L535.039 974.966L530.657 973.942L529.634 978.324L525.252 977.301L523.205 986.065L527.587 987.088L528.61 982.706L537.375 984.753L536.351 989.135L540.733 990.159L538.687 998.923L534.304 997.899ZM489.266 987.381L488.243 991.763L470.715 987.67L471.738 983.288L467.356 982.264L477.59 938.443L481.972 939.467L482.995 935.085L491.76 937.131L490.736 941.514L495.118 942.537L487.954 973.212L492.337 974.235L491.313 978.617L495.695 979.64L493.648 988.405L489.266 987.381Z" fill="black"/>
</g>
<g filter="url(#filter19_d_4_0)">
<path d="M80.6142 482.939L76.5252 481.06L84.0401 464.704L88.1291 466.582L90.0079 462.493L130.898 481.281L129.02 485.37L133.109 487.249L129.351 495.427L125.262 493.548L123.383 497.637L94.7601 484.486L92.8814 488.575L88.7923 486.696L86.9136 490.785L78.7355 487.028L80.6142 482.939ZM94.2872 453.179L90.1981 451.301L103.349 422.677L107.438 424.556L109.317 420.467L125.673 427.982L123.795 432.071L136.062 437.707L134.183 441.796L146.45 447.432L144.571 451.521L148.66 453.4L143.024 465.667L138.935 463.789L137.056 467.878L128.878 464.12L130.757 460.031L122.579 456.274L124.458 452.185L116.28 448.427L118.158 444.338L109.98 440.581L108.101 444.67L112.191 446.548L106.554 458.816L102.465 456.937L100.587 461.026L92.4085 457.269L94.2872 453.179Z" fill="black"/>
</g>
<g filter="url(#filter20_d_4_0)">
<path d="M728.565 126.468L730.804 122.565L746.417 131.521L744.178 135.424L748.082 137.663L725.691 176.698L721.788 174.459L719.549 178.362L711.742 173.884L713.981 169.98L710.078 167.741L725.751 140.417L721.847 138.178L724.086 134.275L720.183 132.036L724.661 124.229L728.565 126.468ZM760.876 145.002L763.115 141.099L786.536 154.533L782.058 162.34L778.154 160.101L775.915 164.004L764.205 157.287L761.966 161.191L773.676 167.908L771.437 171.811L775.341 174.05L773.102 177.954L777.005 180.193L768.049 195.806L764.145 193.567L761.906 197.471L758.003 195.232L755.764 199.135L732.343 185.701L734.582 181.798L730.679 179.559L735.157 171.752L739.06 173.991L741.299 170.087L745.203 172.326L747.442 168.423L755.249 172.901L753.01 176.804L756.913 179.043L759.152 175.14L755.249 172.901L757.488 168.998L745.778 162.28L756.973 142.763L760.876 145.002Z" fill="black"/>
</g>
<g filter="url(#filter21_d_4_0)">
<path d="M228.986 841.623L225.857 844.857L212.922 832.339L216.051 829.105L212.817 825.976L244.111 793.639L247.345 796.768L250.474 793.534L256.942 799.793L253.812 803.027L257.046 806.156L235.14 828.792L238.374 831.922L235.245 835.155L238.478 838.285L232.22 844.752L228.986 841.623ZM202.218 815.718L199.088 818.952L192.621 812.693L195.75 809.46L192.517 806.33L198.775 799.863L202.009 802.992L208.268 796.525L201.8 790.266L189.283 803.201L186.049 800.072L182.92 803.305L176.452 797.047L179.582 793.813L176.348 790.683L191.995 774.515L195.229 777.644L210.876 761.476L214.109 764.605L217.239 761.371L223.706 767.63L220.577 770.864L223.81 773.993L217.552 780.461L224.019 786.719L220.89 789.953L227.357 796.212L224.228 799.446L227.462 802.575L218.073 812.276L214.84 809.147L205.452 818.848L202.218 815.718Z" fill="black"/>
</g>
<g filter="url(#filter22_d_4_0)">
<path d="M922.861 285.658L926.518 283.036L937.006 297.665L933.349 300.287L935.971 303.944L899.399 330.164L896.777 326.507L893.12 329.129L887.876 321.815L891.533 319.193L888.911 315.536L914.511 297.181L911.889 293.524L915.546 290.902L912.924 287.245L920.239 282.001L922.861 285.658ZM944.565 315.932L948.222 313.31L963.955 335.253L960.297 337.875L962.919 341.532L948.291 352.02L945.669 348.363L942.011 350.985L944.633 354.642L940.976 357.264L943.598 360.921L932.627 368.787L930.005 365.13L926.348 367.752L923.726 364.095L920.068 366.717L906.958 348.431L910.615 345.809L905.371 338.495L909.029 335.873L906.407 332.215L910.064 329.593L912.686 333.251L916.343 330.629L918.965 334.286L922.622 331.664L927.866 338.978L924.209 341.6L926.831 345.257L934.145 340.013L931.523 336.356L935.181 333.734L937.803 337.391L945.117 332.147L942.495 328.49L938.838 331.112L933.594 323.798L937.251 321.176L934.629 317.518L941.943 312.274L944.565 315.932Z" fill="black"/>
</g>
<g filter="url(#filter23_d_4_0)">
<path d="M667.413 973.229L668.266 977.648L650.593 981.061L649.739 976.643L645.321 977.496L636.788 933.312L641.206 932.459L640.353 928.041L649.189 926.334L650.043 930.752L654.461 929.899L660.434 960.828L664.853 959.974L665.706 964.393L670.124 963.539L671.831 972.376L667.413 973.229ZM635.257 979.44L636.11 983.858L609.6 988.978L608.747 984.56L604.329 985.413L600.062 963.321L604.48 962.468L603.627 958.05L608.045 957.196L607.192 952.778L611.61 951.925L610.757 947.506L606.339 948.36L607.192 952.778L598.355 954.485L597.502 950.066L593.084 950.92L591.377 942.083L595.795 941.23L594.942 936.811L630.289 929.984L632.849 943.24L628.43 944.093L630.137 952.93L625.719 953.783L626.572 958.201L622.154 959.055L623.007 963.473L618.589 964.326L620.295 973.163L624.714 972.31L623.86 967.891L632.697 966.185L633.55 970.603L637.969 969.75L639.675 978.586L635.257 979.44Z" fill="black"/>
</g>
<defs>
<filter id="filter0_i_4_0" x="23.3213" y="20.8418" width="1059.22" height="1065.46" filterUnits="userSpaceOnUse" color-interpolation-filters="sRGB">
<feFlood flood-opacity="0" result="BackgroundImageFix"/>
<feBlend mode="normal" in="SourceGraphic" in2="BackgroundImageFix" result="shape"/>
<feColorMatrix in="SourceAlpha" type="matrix" values="0 0 0 0 0 0 0 0 0 0 0 0 0 0 0 0 0 0 127 0" result="hardAlpha"/>
<feOffset dy="4"/>
<feGaussianBlur stdDeviation="2"/>
<feComposite in2="hardAlpha" operator="arithmetic" k2="-1" k3="1"/>
<feColorMatrix type="matrix" values="0 0 0 0 0 0 0 0 0 0 0 0 0 0 0 0 0 0 0.4 0"/>
<feBlend mode="normal" in2="shape" result="effect1_innerShadow_4_0"/>
</filter>
<filter id="filter1_d_4_0" x="356" y="359" width="394" height="394" filterUnits="userSpaceOnUse" color-interpolation-filters="sRGB">
<feFlood flood-opacity="0" result="BackgroundImageFix"/>
<feColorMatrix in="SourceAlpha" type="matrix" values="0 0 0 0 0 0 0 0 0 0 0 0 0 0 0 0 0 0 127 0" result="hardAlpha"/>
<feOffset dy="4"/>
<feGaussianBlur stdDeviation="2"/>
<feComposite in2="hardAlpha" operator="out"/>
<feColorMatrix type="matrix" values="0 0 0 0 0 0 0 0 0 0 0 0 0 0 0 0 0 0 0.25 0"/>
<feBlend mode="normal" in2="BackgroundImageFix" result="effect1_dropShadow_4_0"/>
<feBlend mode="normal" in="SourceGraphic" in2="effect1_dropShadow_4_0" result="shape"/>
</filter>
<filter id="filter2_d_4_0" x="520.581" y="95.7639" width="141.75" height="92.2385" filterUnits="userSpaceOnUse" color-interpolation-filters="sRGB">
<feFlood flood-opacity="0" result="BackgroundImageFix"/>
<feColorMatrix in="SourceAlpha" type="matrix" values="0 0 0 0 0 0 0 0 0 0 0 0 0 0 0 0 0 0 127 0" result="hardAlpha"/>
<feOffset dy="4"/>
<feGaussianBlur stdDeviation="2"/>
<feComposite in2="hardAlpha" operator="out"/>
<feColorMatrix type="matrix" values="0 0 0 0 0 0 0 0 0 0 0 0 0 0 0 0 0 0 0.25 0"/>
<feBlend mode="normal" in2="BackgroundImageFix" result="effect1_dropShadow_4_0"/>
<feBlend mode="normal" in="SourceGraphic" in2="effect1_dropShadow_4_0" result="shape"/>
</filter>
<filter id="filter3_d_4_0" x="211.026" y="219.028" width="76.9673" height="88.0828" filterUnits="userSpaceOnUse" color-interpolation-filters="sRGB">
<feFlood flood-opacity="0" result="BackgroundImageFix"/>
<feColorMatrix in="SourceAlpha" type="matrix" values="0 0 0 0 0 0 0 0 0 0 0 0 0 0 0 0 0 0 127 0" result="hardAlpha"/>
<feOffset dy="4"/>
<feGaussianBlur stdDeviation="2"/>
<feComposite in2="hardAlpha" operator="out"/>
<feColorMatrix type="matrix" values="0 0 0 0 0 0 0 0 0 0 0 0 0 0 0 0 0 0 0.25 0"/>
<feBlend mode="normal" in2="BackgroundImageFix" result="effect1_dropShadow_4_0"/>
<feBlend mode="normal" in="SourceGraphic" in2="effect1_dropShadow_4_0" result="shape"/>
</filter>
<filter id="filter4_d_4_0" x="886.425" y="741.929" width="97.9083" height="95.4486" filterUnits="userSpaceOnUse" color-interpolation-filters="sRGB">
<feFlood flood-opacity="0" result="BackgroundImageFix"/>
<feColorMatrix in="SourceAlpha" type="matrix" values="0 0 0 0 0 0 0 0 0 0 0 0 0 0 0 0 0 0 127 0" result="hardAlpha"/>
<feOffset dy="4"/>
<feGaussianBlur stdDeviation="2"/>
<feComposite in2="hardAlpha" operator="out"/>
<feColorMatrix type="matrix" values="0 0 0 0 0 0 0 0 0 0 0 0 0 0 0 0 0 0 0.25 0"/>
<feBlend mode="normal" in2="BackgroundImageFix" result="effect1_dropShadow_4_0"/>
<feBlend mode="normal" in="SourceGraphic" in2="effect1_dropShadow_4_0" result="shape"/>
</filter>
<filter id="filter5_d_4_0" x="802.904" y="202.264" width="97.5576" height="91.1069" filterUnits="userSpaceOnUse" color-interpolation-filters="sRGB">
<feFlood flood-opacity="0" result="BackgroundImageFix"/>
<feColorMatrix in="SourceAlpha" type="matrix" values="0 0 0 0 0 0 0 0 0 0 0 0 0 0 0 0 0 0 127 0" result="hardAlpha"/>
<feOffset dy="4"/>
<feGaussianBlur stdDeviation="2"/>
<feComposite in2="hardAlpha" operator="out"/>
<feColorMatrix type="matrix" values="0 0 0 0 0 0 0 0 0 0 0 0 0 0 0 0 0 0 0.25 0"/>
<feBlend mode="normal" in2="BackgroundImageFix" result="effect1_dropShadow_4_0"/>
<feBlend mode="normal" in="SourceGraphic" in2="effect1_dropShadow_4_0" result="shape"/>
</filter>
<filter id="filter6_d_4_0" x="799.582" y="815.98" width="97.5071" height="101.052" filterUnits="userSpaceOnUse" color-interpolation-filters="sRGB">
<feFlood flood-opacity="0" result="BackgroundImageFix"/>
<feColorMatrix in="SourceAlpha" type="matrix" values="0 0 0 0 0 0 0 0 0 0 0 0 0 0 0 0 0 0 127 0" result="hardAlpha"/>
<feOffset dy="4"/>
<feGaussianBlur stdDeviation="2"/>
<feComposite in2="hardAlpha" operator="out"/>
<feColorMatrix type="matrix" values="0 0 0 0 0 0 0 0 0 0 0 0 0 0 0 0 0 0 0.25 0"/>
<feBlend mode="normal" in2="BackgroundImageFix" result="effect1_dropShadow_4_0"/>
<feBlend mode="normal" in="SourceGraphic" in2="effect1_dropShadow_4_0" result="shape"/>
</filter>
<filter id="filter7_d_4_0" x="929.941" y="414.423" width="87.4397" height="72.418" filterUnits="userSpaceOnUse" color-interpolation-filters="sRGB">
<feFlood flood-opacity="0" result="BackgroundImageFix"/>
<feColorMatrix in="SourceAlpha" type="matrix" values="0 0 0 0 0 0 0 0 0 0 0 0 0 0 0 0 0 0 127 0" result="hardAlpha"/>
<feOffset dy="4"/>
<feGaussianBlur stdDeviation="2"/>
<feComposite in2="hardAlpha" operator="out"/>
<feColorMatrix type="matrix" values="0 0 0 0 0 0 0 0 0 0 0 0 0 0 0 0 0 0 0.25 0"/>
<feBlend mode="normal" in2="BackgroundImageFix" result="effect1_dropShadow_4_0"/>
<feBlend mode="normal" in="SourceGraphic" in2="effect1_dropShadow_4_0" result="shape"/>
</filter>
<filter id="filter8_d_4_0" x="699.806" y="885.245" width="86.1619" height="95.5282" filterUnits="userSpaceOnUse" color-interpolation-filters="sRGB">
<feFlood flood-opacity="0" result="BackgroundImageFix"/>
<feColorMatrix in="SourceAlpha" type="matrix" values="0 0 0 0 0 0 0 0 0 0 0 0 0 0 0 0 0 0 127 0" result="hardAlpha"/>
<feOffset dy="4"/>
<feGaussianBlur stdDeviation="2"/>
<feComposite in2="hardAlpha" operator="out"/>
<feColorMatrix type="matrix" values="0 0 0 0 0 0 0 0 0 0 0 0 0 0 0 0 0 0 0.25 0"/>
<feBlend mode="normal" in2="BackgroundImageFix" result="effect1_dropShadow_4_0"/>
<feBlend mode="normal" in="SourceGraphic" in2="effect1_dropShadow_4_0" result="shape"/>
</filter>
<filter id="filter9_d_4_0" x="58.3197" y="569.099" width="81.938" height="64.6125" filterUnits="userSpaceOnUse" color-interpolation-filters="sRGB">
<feFlood flood-opacity="0" result="BackgroundImageFix"/>
<feColorMatrix in="SourceAlpha" type="matrix" values="0 0 0 0 0 0 0 0 0 0 0 0 0 0 0 0 0 0 127 0" result="hardAlpha"/>
<feOffset dy="4"/>
<feGaussianBlur stdDeviation="2"/>
<feComposite in2="hardAlpha" operator="out"/>
<feColorMatrix type="matrix" values="0 0 0 0 0 0 0 0 0 0 0 0 0 0 0 0 0 0 0.25 0"/>
<feBlend mode="normal" in2="BackgroundImageFix" result="effect1_dropShadow_4_0"/>
<feBlend mode="normal" in="SourceGraphic" in2="effect1_dropShadow_4_0" result="shape"/>
</filter>
<filter id="filter10_d_4_0" x="925.896" y="643.121" width="100.442" height="101.711" filterUnits="userSpaceOnUse" color-interpolation-filters="sRGB">
<feFlood flood-opacity="0" result="BackgroundImageFix"/>
<feColorMatrix in="SourceAlpha" type="matrix" values="0 0 0 0 0 0 0 0 0 0 0 0 0 0 0 0 0 0 127 0" result="hardAlpha"/>
<feOffset dy="4"/>
<feGaussianBlur stdDeviation="2"/>
<feComposite in2="hardAlpha" operator="out"/>
<feColorMatrix type="matrix" values="0 0 0 0 0 0 0 0 0 0 0 0 0 0 0 0 0 0 0.25 0"/>
<feBlend mode="normal" in2="BackgroundImageFix" result="effect1_dropShadow_4_0"/>
<feBlend mode="normal" in="SourceGraphic" in2="effect1_dropShadow_4_0" result="shape"/>
</filter>
<filter id="filter11_d_4_0" x="246.604" y="855.769" width="94.6107" height="97.9967" filterUnits="userSpaceOnUse" color-interpolation-filters="sRGB">
<feFlood flood-opacity="0" result="BackgroundImageFix"/>
<feColorMatrix in="SourceAlpha" type="matrix" values="0 0 0 0 0 0 0 0 0 0 0 0 0 0 0 0 0 0 127 0" result="hardAlpha"/>
<feOffset dy="4"/>
<feGaussianBlur stdDeviation="2"/>
<feComposite in2="hardAlpha" operator="out"/>
<feColorMatrix type="matrix" values="0 0 0 0 0 0 0 0 0 0 0 0 0 0 0 0 0 0 0.25 0"/>
<feBlend mode="normal" in2="BackgroundImageFix" result="effect1_dropShadow_4_0"/>
<feBlend mode="normal" in="SourceGraphic" in2="effect1_dropShadow_4_0" result="shape"/>
</filter>
<filter id="filter12_d_4_0" x="297.082" y="162.638" width="102.159" height="92.8242" filterUnits="userSpaceOnUse" color-interpolation-filters="sRGB">
<feFlood flood-opacity="0" result="BackgroundImageFix"/>
<feColorMatrix in="SourceAlpha" type="matrix" values="0 0 0 0 0 0 0 0 0 0 0 0 0 0 0 0 0 0 127 0" result="hardAlpha"/>
<feOffset dy="4"/>
<feGaussianBlur stdDeviation="2"/>
<feComposite in2="hardAlpha" operator="out"/>
<feColorMatrix type="matrix" values="0 0 0 0 0 0 0 0 0 0 0 0 0 0 0 0 0 0 0.25 0"/>
<feBlend mode="normal" in2="BackgroundImageFix" result="effect1_dropShadow_4_0"/>
<feBlend mode="normal" in="SourceGraphic" in2="effect1_dropShadow_4_0" result="shape"/>
</filter>
<filter id="filter13_d_4_0" x="109.306" y="662.298" width="84.9937" height="86.9834" filterUnits="userSpaceOnUse" color-interpolation-filters="sRGB">
<feFlood flood-opacity="0" result="BackgroundImageFix"/>
<feColorMatrix in="SourceAlpha" type="matrix" values="0 0 0 0 0 0 0 0 0 0 0 0 0 0 0 0 0 0 127 0" result="hardAlpha"/>
<feOffset dy="4"/>
<feGaussianBlur stdDeviation="2"/>
<feComposite in2="hardAlpha" operator="out"/>
<feColorMatrix type="matrix" values="0 0 0 0 0 0 0 0 0 0 0 0 0 0 0 0 0 0 0.25 0"/>
<feBlend mode="normal" in2="BackgroundImageFix" result="effect1_dropShadow_4_0"/>
<feBlend mode="normal" in="SourceGraphic" in2="effect1_dropShadow_4_0" result="shape"/>
</filter>
<filter id="filter14_d_4_0" x="397.33" y="102.97" width="92.5667" height="78.8396" filterUnits="userSpaceOnUse" color-interpolation-filters="sRGB">
<feFlood flood-opacity="0" result="BackgroundImageFix"/>
<feColorMatrix in="SourceAlpha" type="matrix" values="0 0 0 0 0 0 0 0 0 0 0 0 0 0 0 0 0 0 127 0" result="hardAlpha"/>
<feOffset dy="4"/>
<feGaussianBlur stdDeviation="2"/>
<feComposite in2="hardAlpha" operator="out"/>
<feColorMatrix type="matrix" values="0 0 0 0 0 0 0 0 0 0 0 0 0 0 0 0 0 0 0.25 0"/>
<feBlend mode="normal" in2="BackgroundImageFix" result="effect1_dropShadow_4_0"/>
<feBlend mode="normal" in="SourceGraphic" in2="effect1_dropShadow_4_0" result="shape"/>
</filter>
<filter id="filter15_d_4_0" x="955.145" y="518.804" width="69.684" height="90.8748" filterUnits="userSpaceOnUse" color-interpolation-filters="sRGB">
<feFlood flood-opacity="0" result="BackgroundImageFix"/>
<feColorMatrix in="SourceAlpha" type="matrix" values="0 0 0 0 0 0 0 0 0 0 0 0 0 0 0 0 0 0 127 0" result="hardAlpha"/>
<feOffset dy="4"/>
<feGaussianBlur stdDeviation="2"/>
<feComposite in2="hardAlpha" operator="out"/>
<feColorMatrix type="matrix" values="0 0 0 0 0 0 0 0 0 0 0 0 0 0 0 0 0 0 0.25 0"/>
<feBlend mode="normal" in2="BackgroundImageFix" result="effect1_dropShadow_4_0"/>
<feBlend mode="normal" in="SourceGraphic" in2="effect1_dropShadow_4_0" result="shape"/>
</filter>
<filter id="filter16_d_4_0" x="352.872" y="913.036" width="95.8214" height="84.8365" filterUnits="userSpaceOnUse" color-interpolation-filters="sRGB">
<feFlood flood-opacity="0" result="BackgroundImageFix"/>
<feColorMatrix in="SourceAlpha" type="matrix" values="0 0 0 0 0 0 0 0 0 0 0 0 0 0 0 0 0 0 127 0" result="hardAlpha"/>
<feOffset dy="4"/>
<feGaussianBlur stdDeviation="2"/>
<feComposite in2="hardAlpha" operator="out"/>
<feColorMatrix type="matrix" values="0 0 0 0 0 0 0 0 0 0 0 0 0 0 0 0 0 0 0.25 0"/>
<feBlend mode="normal" in2="BackgroundImageFix" result="effect1_dropShadow_4_0"/>
<feBlend mode="normal" in="SourceGraphic" in2="effect1_dropShadow_4_0" result="shape"/>
</filter>
<filter id="filter17_d_4_0" x="89.4536" y="282.822" width="105.69" height="113.471" filterUnits="userSpaceOnUse" color-interpolation-filters="sRGB">
<feFlood flood-opacity="0" result="BackgroundImageFix"/>
<feColorMatrix in="SourceAlpha" type="matrix" values="0 0 0 0 0 0 0 0 0 0 0 0 0 0 0 0 0 0 127 0" result="hardAlpha"/>
<feOffset dy="4"/>
<feGaussianBlur stdDeviation="2"/>
<feComposite in2="hardAlpha" operator="out"/>
<feColorMatrix type="matrix" values="0 0 0 0 0 0 0 0 0 0 0 0 0 0 0 0 0 0 0.25 0"/>
<feBlend mode="normal" in2="BackgroundImageFix" result="effect1_dropShadow_4_0"/>
<feBlend mode="normal" in="SourceGraphic" in2="effect1_dropShadow_4_0" result="shape"/>
</filter>
<filter id="filter18_d_4_0" x="462.333" y="934.061" width="91.6113" height="77.2437" filterUnits="userSpaceOnUse" color-interpolation-filters="sRGB">
<feFlood flood-opacity="0" result="BackgroundImageFix"/>
<feColorMatrix in="SourceAlpha" type="matrix" values="0 0 0 0 0 0 0 0 0 0 0 0 0 0 0 0 0 0 127 0" result="hardAlpha"/>
<feOffset dy="4"/>
<feGaussianBlur stdDeviation="2"/>
<feComposite in2="hardAlpha" operator="out"/>
<feColorMatrix type="matrix" values="0 0 0 0 0 0 0 0 0 0 0 0 0 0 0 0 0 0 0.25 0"/>
<feBlend mode="normal" in2="BackgroundImageFix" result="effect1_dropShadow_4_0"/>
<feBlend mode="normal" in="SourceGraphic" in2="effect1_dropShadow_4_0" result="shape"/>
</filter>
<filter id="filter19_d_4_0" x="70.6464" y="418.588" width="87.6502" height="97.1055" filterUnits="userSpaceOnUse" color-interpolation-filters="sRGB">
<feFlood flood-opacity="0" result="BackgroundImageFix"/>
<feColorMatrix in="SourceAlpha" type="matrix" values="0 0 0 0 0 0 0 0 0 0 0 0 0 0 0 0 0 0 127 0" result="hardAlpha"/>
<feOffset dy="4"/>
<feGaussianBlur stdDeviation="2"/>
<feComposite in2="hardAlpha" operator="out"/>
<feColorMatrix type="matrix" values="0 0 0 0 0 0 0 0 0 0 0 0 0 0 0 0 0 0 0.25 0"/>
<feBlend mode="normal" in2="BackgroundImageFix" result="effect1_dropShadow_4_0"/>
<feBlend mode="normal" in="SourceGraphic" in2="effect1_dropShadow_4_0" result="shape"/>
</filter>
<filter id="filter20_d_4_0" x="696.032" y="120.326" width="98.4076" height="91.2876" filterUnits="userSpaceOnUse" color-interpolation-filters="sRGB">
<feFlood flood-opacity="0" result="BackgroundImageFix"/>
<feColorMatrix in="SourceAlpha" type="matrix" values="0 0 0 0 0 0 0 0 0 0 0 0 0 0 0 0 0 0 127 0" result="hardAlpha"/>
<feOffset dy="4"/>
<feGaussianBlur stdDeviation="2"/>
<feComposite in2="hardAlpha" operator="out"/>
<feColorMatrix type="matrix" values="0 0 0 0 0 0 0 0 0 0 0 0 0 0 0 0 0 0 0.25 0"/>
<feBlend mode="normal" in2="BackgroundImageFix" result="effect1_dropShadow_4_0"/>
<feBlend mode="normal" in="SourceGraphic" in2="effect1_dropShadow_4_0" result="shape"/>
</filter>
<filter id="filter21_d_4_0" x="169.219" y="755.112" width="101.424" height="100.874" filterUnits="userSpaceOnUse" color-interpolation-filters="sRGB">
<feFlood flood-opacity="0" result="BackgroundImageFix"/>
<feColorMatrix in="SourceAlpha" type="matrix" values="0 0 0 0 0 0 0 0 0 0 0 0 0 0 0 0 0 0 127 0" result="hardAlpha"/>
<feOffset dy="4"/>
<feGaussianBlur stdDeviation="2"/>
<feComposite in2="hardAlpha" operator="out"/>
<feColorMatrix type="matrix" values="0 0 0 0 0 0 0 0 0 0 0 0 0 0 0 0 0 0 0.25 0"/>
<feBlend mode="normal" in2="BackgroundImageFix" result="effect1_dropShadow_4_0"/>
<feBlend mode="normal" in="SourceGraphic" in2="effect1_dropShadow_4_0" result="shape"/>
</filter>
<filter id="filter22_d_4_0" x="876.01" y="279.379" width="97.1888" height="102.652" filterUnits="userSpaceOnUse" color-interpolation-filters="sRGB">
<feFlood flood-opacity="0" result="BackgroundImageFix"/>
<feColorMatrix in="SourceAlpha" type="matrix" values="0 0 0 0 0 0 0 0 0 0 0 0 0 0 0 0 0 0 127 0" result="hardAlpha"/>
<feOffset dy="4"/>
<feGaussianBlur stdDeviation="2"/>
<feComposite in2="hardAlpha" operator="out"/>
<feColorMatrix type="matrix" values="0 0 0 0 0 0 0 0 0 0 0 0 0 0 0 0 0 0 0.25 0"/>
<feBlend mode="normal" in2="BackgroundImageFix" result="effect1_dropShadow_4_0"/>
<feBlend mode="normal" in="SourceGraphic" in2="effect1_dropShadow_4_0" result="shape"/>
</filter>
<filter id="filter23_d_4_0" x="586.524" y="923.774" width="90.1609" height="74.9106" filterUnits="userSpaceOnUse" color-interpolation-filters="sRGB">
<feFlood flood-opacity="0" result="BackgroundImageFix"/>
<feColorMatrix in="SourceAlpha" type="matrix" values="0 0 0 0 0 0 0 0 0 0 0 0 0 0 0 0 0 0 127 0" result="hardAlpha"/>
<feOffset dy="4"/>
<feGaussianBlur stdDeviation="2"/>
<feComposite in2="hardAlpha" operator="out"/>
<feColorMatrix type="matrix" values="0 0 0 0 0 0 0 0 0 0 0 0 0 0 0 0 0 0 0.25 0"/>
<feBlend mode="normal" in2="BackgroundImageFix" result="effect1_dropShadow_4_0"/>
<feBlend mode="normal" in="SourceGraphic" in2="effect1_dropShadow_4_0" result="shape"/>
</filter>
<linearGradient id="paint0_linear_4_0" x1="552.5" y1="0" x2="552.5" y2="1105" gradientUnits="userSpaceOnUse">
<stop stop-color="#A6A6A6"/>
<stop offset="1" stop-color="#919191"/>
</linearGradient>
</defs>
</svg>
